<?xml version="1.0" encoding="utf-8"?>
<!-- Generator: Adobe Illustrator 25.2.0, SVG Export Plug-In . SVG Version: 6.00 Build 0)  -->
<svg version="1.1" id="Layer_1" xmlns="http://www.w3.org/2000/svg" xmlns:xlink="http://www.w3.org/1999/xlink" x="0px" y="0px"
	 viewBox="0 0 769 306.6" style="enable-background:new 0 0 769 306.6;" xml:space="preserve">
<style type="text/css">
	.st0{display:none;}
	.st1{display:inline;}
	.st2{fill:#F28526;}
	.st3{fill:#FFFFFF;}
	.st4{fill:none;}
	.st5{display:inline;fill:#2E3CA3;stroke:#000000;stroke-miterlimit:10;}
	.st6{fill:#231F20;}
	.st7{fill:#732FA6;}
	.st8{fill:#FF1179;}
	.st9{fill:#FFEC2D;}
	.st10{fill:#371D10;}
</style>
<g id="Calque_2" class="st0">
	<g id="Calque_1_1_" class="st1">
		<g id="Layer_2_1_">
			<g id="Layer_6_copy_12">
				<path class="st2" d="M622.2,83.3C454,86.8,286.8,103,118.8,109.9c4.5,35.4,6.6,71.2,6.1,106.9c106-8.8,207.7-10.2,311.7-20.1
					c47.9-3.3,94.1-8.1,144.9-6.1c13.3-1.3,26.7,0.1,44.4-4.8c-161.3,8.7-322.4,17.9-483.4,27.6c1.9-8.1,1.4-16.6-1.4-24.5
					C302,177.2,463.4,174.6,624.3,159c-161.4,6.8-322.1,20.4-483.2,29.9c1.8-8.9,1.3-18.1-1.5-26.7L623,134.6
					c-161.6,2.6-322.1,20.6-483.3,27.6c1.8-8.9,1.2-18.1-1.6-26.7c161.4-4.5,321.9-20.4,483.3-27.6
					c-161.2,9.5-322.3,18.7-483.3,27.6c1.9-8.1,1.4-16.6-1.4-24.5C300.1,104.4,458.4,88.7,622.2,83.3L622.2,83.3z M141.5,213.4
					c-2.2,0-4.4,0.1-6.6,0.4c-2.6-7.9-3.1-16.3-1.4-24.4l6.6-0.4C142.8,197.7,141,204.5,141.5,213.4z M140.1,189
					c-2.2,0-4.4,0.1-6.6,0.4c-2.7-8.7-3.2-17.8-1.5-26.7c2.2,0,4.4-0.1,6.6-0.4C141.3,171,139.6,180,140.1,189z M138.6,162.4
					c-2.2,0-4.4,0.1-6.6,0.4c-2.7-8.7-3.2-17.8-1.5-26.7c2.2,0,4.4-0.1,6.6-0.4C139.8,144.4,138.1,153.4,138.6,162.4z M137.1,135.8
					c-2.2,0-4.4,0.1-6.6,0.4c-2.6-7.9-3.1-16.3-1.4-24.4l6.6-0.4C138.4,120.2,136.6,126.9,137.1,135.8z"/>
				<path class="st2" d="M144.5,148.7c2.3,2.1,2.5,4.3,4.7,4.2c2.3-0.4,4.1-2.3,4.2-4.7c-0.3-2.3-2.3-4.1-4.7-4.2
					C146.4,144.1,146.5,146.3,144.5,148.7z"/>
				<path class="st2" d="M146,175.3c2.3,2.1,2.5,4.3,4.7,4.2c2.4-0.1,4.3-2.2,4.2-4.7c-0.1-2.4-2.2-4.3-4.7-4.2
					C147.9,170.7,148.1,172.9,146,175.3z"/>
				<g>
					
						<rect x="272.5" y="111.1" transform="matrix(0.9984 -5.709805e-02 5.709805e-02 0.9984 -8.5985 16.0724)" width="8.9" height="94.8"/>
					<path class="st3" d="M288.2,209.2l-16.6,1l-5.9-102.4l16.6-1L288.2,209.2z M278.9,202l1.1-0.1l-5-86.9l-1.1,0.1L278.9,202z"/>
				</g>
				<g>
					<path d="M616.4,175.1c-17.4,1-32.8-11.1-36-28.3l75.3-4.3l-0.3-4.4c-1.6-24.5-20.3-42.1-43.6-40.8c-22.1,1.4-39.7,19-40.9,41.1
						l-9,0.5c-3.5-22.2-21.3-37.6-43.1-36.4c-22.1,1.3-39.7,19-40.9,41.2l-44.3,2.5l-13.1,31.9l-32.9-54.4L362.9,181L302,66.6
						l-34.6,2l0.8,14.1l8.9-0.5l-0.3-5.2l19.9-1.1L364,202.7l25.3-58.9l33.1,55.1l17.4-44l38.6-2.2c3.7,23.7,25.9,40,49.6,36.3
						c11.1-1.7,21.1-7.6,27.9-16.5l-7-5.4c-11.6,15.2-33.3,18.1-48.5,6.5c-6.9-5.2-11.5-12.9-13.1-21.4l1.8-0.1v-0.2l82.4-4.7
						c3.6,23.7,25.8,40,49.6,36.4c11.1-1.7,21-7.6,27.8-16.4l-7-5.4C635.8,169.6,626.5,174.5,616.4,175.1z M612.5,106
						c16.9-1,30.7,10.8,33.7,28l-66.2,3.8C581.4,120.6,595.3,107,612.5,106z M486.9,143.2c1.4-17.2,15.3-30.8,32.5-31.8
						c16.9-1,30.7,10.8,33.7,28L486.9,143.2z"/>
					<path class="st3" d="M364.3,211.7L294.4,79.8l-13.6,0.8l0.3,5.2l-16.6,1l-1.2-21.9l41-2.3l58.5,109.6l24.5-56.8l32.8,54.2
						l11.1-27l43.4-2.5c2.9-22.5,21.3-40,44.2-41.4c22.4-1.3,41.5,13.8,46.5,36.2l2.3-0.1c2.9-22.4,21.3-39.9,44.2-41.3
						c25.5-1.5,46,17.6,47.7,44.4l0.5,8.3l-74.5,4.3c4.4,12.9,16.9,21.6,30.8,20.8l0,0h0.1c8.9-0.5,17.1-4.9,22.5-11.9l2.4-3.1
						l13.1,10.2l-2.4,3.1c-7.5,9.7-18.2,16.1-30.3,17.9c-12.5,1.9-25-1.1-35.2-8.6c-9.2-6.8-15.6-16.5-18.1-27.5l-76.1,4.4
						c1.9,5.9,5.6,11,10.5,14.8c13.5,10.3,32.8,7.7,43-5.8l2.4-3.1l13.1,10.2L559,175c-7.5,9.7-18.2,16.1-30.3,18
						c-24.6,3.8-47.8-12.2-53.3-36l-32.8,1.9l-19.4,49l-33.3-55.3L364.3,211.7z M437.1,151.1l44.6-2.6l0.5,3.5
						c3.3,21.6,23.6,36.4,45.1,33c8.8-1.4,16.8-5.6,22.9-12.1l-0.8-0.7c-13.3,14.2-35.6,16.3-51.4,4.3c-7.7-5.8-12.8-14.3-14.5-23.8
						l-0.8-4.3l2.3-0.1l3.9-0.4l85.9-4.9l0.5,3.5c1.6,10.4,7.2,19.6,15.7,25.9c8.5,6.3,19,8.8,29.4,7.2c8.8-1.4,16.8-5.6,22.9-12
						l-0.9-0.7c-6.7,7.1-15.9,11.4-25.7,12c-0.1,0-0.1,0-0.2,0l0,0c-19.3,1.1-36.5-12.4-40-31.4l-0.8-4.3l75.9-4.3v-0.6
						c-1.4-22.3-18.4-38.3-39.5-37.1c-20.1,1.2-36.1,17.3-37.2,37.5l-0.2,3.5l-16,0.9l-0.5-3.5c-3.2-20.6-19.3-34.2-39.1-33.1
						c-20.1,1.2-36.2,17.3-37.3,37.5l-0.2,3.5l-45.3,2.6l-15,36.8l-33-54.5l-24.9,57.8L299.7,70.6l-28.3,1.6l0.4,6.3l1.1-0.1
						l-0.3-5.2l26.3-1.5l64.7,122l25.1-58.4l33,54.8L437.1,151.1z M482.7,147.4l0.4-4.5c1.6-19,17.1-34.2,36.1-35.4
						c18.8-1.1,34.3,11.8,37.8,31.2l0.8,4.3L482.7,147.4z M519.6,115.3c-13.7,0.8-25.1,10.7-28.1,23.8l56.8-3.3
						C544.2,122.8,533,114.6,519.6,115.3z M650.8,137.7l-75,4.3l0.4-4.5c1.6-19,17.1-34.2,36.1-35.4l0,0
						c18.8-1.1,34.3,11.8,37.8,31.2L650.8,137.7z M584.6,133.7l56.8-3.2c-4-13-15.3-21.3-28.6-20.5
						C599,110.7,587.6,120.6,584.6,133.7z"/>
				</g>
				<polygon class="st3" points="252.1,93.6 243.2,94.2 248.6,188.8 166.6,136.8 171.7,227.3 180.6,226.8 176.4,153.3 258.5,205.3 
					252.6,102.5 287,100.5 286.5,91.7 				"/>
				<g>
					<polygon points="252.1,93.6 243.2,94.2 248.6,188.8 166.6,136.8 171.7,227.3 180.6,226.8 176.4,153.3 258.5,205.3 252.6,102.5 
						287,100.5 286.5,91.7 					"/>
					<path class="st3" d="M184.7,230.5l-16.6,1l-5.8-102l82.1,52l-5.2-91l51-2.9l1,16.6l-34.4,2l6.1,106.5l-82.1-52L184.7,230.5z
						 M175.4,223.2l1.1-0.1l-4.4-77.2l82.1,52l-5.7-99.1l34.4-2l-0.1-1.1l-35.5,2l5.6,98.3l-82.1-52L175.4,223.2z"/>
				</g>
				<path class="st4" d="M612.4,103.8c-17.3,1.1-31.1,14.7-32.5,31.9l66.2-3.8C643.1,114.6,629.2,102.8,612.4,103.8z"/>
				<path class="st4" d="M519.3,109.1c-17.3,1.1-31.1,14.7-32.5,31.9l66.2-3.8C550,119.9,536.1,108.1,519.3,109.1z"/>
			</g>
		</g>
		<g>
			<path class="st3" d="M482.1,206.7h4.6c2.6,0,4.4,0.1,5.3,0.3c1.3,0.3,2.4,1,3.2,2c0.8,1,1.2,2.3,1.2,3.8s-0.4,2.8-1.2,3.8
				c-0.8,1-1.9,1.7-3.4,2c-1,0.2-3,0.4-5.8,0.4h-1.6v10.7h-2.3L482.1,206.7L482.1,206.7z M484.4,208.9v7.8h3.9
				c1.6,0,2.7-0.1,3.5-0.4c0.7-0.3,1.3-0.7,1.7-1.4c0.4-0.6,0.6-1.4,0.6-2.1c0-0.8-0.2-1.5-0.6-2.1s-1-1.1-1.6-1.4
				c-0.7-0.3-1.8-0.4-3.4-0.4L484.4,208.9L484.4,208.9z"/>
			<path class="st3" d="M499.9,212.6h2.2v2.5c0.7-1,1.4-1.7,2.1-2.2s1.5-0.7,2.3-0.7c0.6,0,1.2,0.2,1.9,0.6l-1.1,1.8
				c-0.5-0.2-0.8-0.3-1.2-0.3c-0.7,0-1.4,0.3-2.1,0.9c-0.7,0.6-1.2,1.5-1.5,2.8c-0.3,1-0.4,2.9-0.4,5.9v5.8h-2.2L499.9,212.6
				L499.9,212.6z"/>
			<path class="st3" d="M518.4,212.2c2.6,0,4.8,0.9,6.5,2.8c1.6,1.7,2.3,3.8,2.3,6.1c0,2.4-0.8,4.5-2.5,6.2
				c-1.7,1.8-3.8,2.7-6.4,2.7c-2.6,0-4.7-0.9-6.4-2.7s-2.5-3.9-2.5-6.2c0-2.4,0.8-4.4,2.3-6.1C513.6,213.2,515.8,212.2,518.4,212.2z
				 M518.4,214.4c-1.8,0-3.4,0.7-4.7,2s-2,3-2,4.9c0,1.2,0.3,2.4,0.9,3.4s1.4,1.9,2.4,2.5s2.1,0.9,3.3,0.9s2.3-0.3,3.3-0.9
				s1.8-1.4,2.4-2.5c0.6-1.1,0.9-2.2,0.9-3.4c0-1.9-0.7-3.5-2-4.9C521.8,215,520.2,214.4,518.4,214.4z"/>
			<path class="st3" d="M548.3,206.1v23.6h-2.2v-2.9c-0.9,1.1-1.9,2-3.1,2.5s-2.4,0.8-3.7,0.8c-2.4,0-4.5-0.9-6.2-2.6
				c-1.7-1.7-2.6-3.9-2.6-6.4c0-2.4,0.9-4.5,2.6-6.3c1.7-1.7,3.8-2.6,6.2-2.6c1.4,0,2.7,0.3,3.8,0.9c1.1,0.6,2.1,1.5,3,2.7v-9.7
				H548.3z M539.5,214.3c-1.2,0-2.3,0.3-3.4,0.9s-1.8,1.4-2.5,2.5s-0.9,2.2-0.9,3.4s0.3,2.3,0.9,3.4c0.6,1.1,1.4,1.9,2.5,2.6
				s2.1,0.9,3.3,0.9s2.3-0.3,3.4-0.9c1.1-0.6,1.9-1.4,2.5-2.5s0.9-2.2,0.9-3.5c0-2-0.6-3.6-1.9-4.9C543,215,541.4,214.3,539.5,214.3
				z"/>
			<path class="st3" d="M552.9,212.6h2.2v7.9c0,1.9,0.1,3.3,0.3,4c0.3,1,0.9,1.9,1.8,2.5c0.9,0.6,1.9,0.9,3.2,0.9s2.3-0.3,3.1-0.9
				c0.8-0.6,1.4-1.4,1.8-2.3c0.2-0.7,0.3-2,0.3-4.2v-7.9h2.2v8.3c0,2.3-0.3,4.1-0.8,5.3s-1.4,2.1-2.5,2.8s-2.5,1-4.1,1s-3-0.3-4.1-1
				s-1.9-1.6-2.5-2.8s-0.8-3-0.8-5.4v-8.2L552.9,212.6L552.9,212.6z"/>
			<path class="st3" d="M589.2,216.2l-1.7,1.1c-1.5-2-3.5-3-6.1-3c-2.1,0-3.8,0.7-5.2,2s-2.1,2.9-2.1,4.9c0,1.2,0.3,2.4,0.9,3.5
				c0.6,1.1,1.5,1.9,2.6,2.5s2.3,0.9,3.7,0.9c2.5,0,4.5-1,6.1-3l1.7,1.1c-0.8,1.2-1.9,2.2-3.3,2.8c-1.4,0.7-2.9,1-4.7,1
				c-2.7,0-4.9-0.9-6.7-2.6c-1.8-1.7-2.7-3.8-2.7-6.2c0-1.6,0.4-3.2,1.2-4.6c0.8-1.4,2-2.5,3.4-3.3s3.1-1.2,4.9-1.2
				c1.1,0,2.2,0.2,3.3,0.5s1.9,0.8,2.7,1.3C588,214.6,588.7,215.3,589.2,216.2z"/>
			<path class="st3" d="M595.3,206.3h2.2v6.3h3.5v1.9h-3.5v15.1h-2.2v-15.1h-3v-1.9h3V206.3z"/>
			<path class="st3" d="M605,205.6c0.5,0,0.9,0.2,1.3,0.5c0.4,0.4,0.5,0.8,0.5,1.3s-0.2,0.9-0.5,1.3c-0.4,0.4-0.8,0.5-1.3,0.5
				s-0.9-0.2-1.3-0.5c-0.4-0.4-0.5-0.8-0.5-1.3s0.2-0.9,0.5-1.3C604.1,205.8,604.5,205.6,605,205.6z M603.9,212.6h2.2v17h-2.2V212.6
				z"/>
			<path class="st3" d="M618.7,212.2c2.6,0,4.8,0.9,6.5,2.8c1.6,1.7,2.3,3.8,2.3,6.1c0,2.4-0.8,4.5-2.5,6.2
				c-1.7,1.8-3.8,2.7-6.4,2.7c-2.6,0-4.7-0.9-6.4-2.7s-2.5-3.9-2.5-6.2c0-2.4,0.8-4.4,2.3-6.1C613.9,213.2,616,212.2,618.7,212.2z
				 M618.7,214.4c-1.8,0-3.4,0.7-4.7,2s-2,3-2,4.9c0,1.2,0.3,2.4,0.9,3.4s1.4,1.9,2.4,2.5s2.1,0.9,3.3,0.9s2.3-0.3,3.3-0.9
				s1.8-1.4,2.4-2.5c0.6-1.1,0.9-2.2,0.9-3.4c0-1.9-0.7-3.5-2-4.9C622,215,620.5,214.4,618.7,214.4z"/>
			<path class="st3" d="M631.6,212.6h2.2v3c0.9-1.2,1.8-2,2.9-2.6s2.2-0.9,3.5-0.9s2.4,0.3,3.4,1c1,0.6,1.7,1.5,2.2,2.6
				s0.7,2.8,0.7,5.1v8.8h-2.2v-8.1c0-2-0.1-3.3-0.2-3.9c-0.3-1.1-0.7-2-1.5-2.5c-0.7-0.6-1.7-0.9-2.8-0.9c-1.3,0-2.5,0.4-3.6,1.3
				s-1.7,2-2.1,3.2c-0.2,0.8-0.3,2.4-0.3,4.6v6.2h-2.2L631.6,212.6L631.6,212.6z"/>
			<path class="st3" d="M659.6,214.5l-1.4,1.5c-1.2-1.1-2.3-1.7-3.4-1.7c-0.7,0-1.3,0.2-1.8,0.7s-0.8,1-0.8,1.6s0.2,1.1,0.6,1.6
				c0.4,0.5,1.3,1.1,2.6,1.8c1.6,0.8,2.7,1.7,3.3,2.4c0.6,0.8,0.9,1.7,0.9,2.7c0,1.4-0.5,2.6-1.5,3.5c-1,1-2.2,1.5-3.7,1.5
				c-1,0-1.9-0.2-2.8-0.6c-0.9-0.4-1.6-1-2.2-1.8l1.4-1.6c1.1,1.3,2.3,1.9,3.6,1.9c0.9,0,1.6-0.3,2.2-0.8c0.6-0.6,0.9-1.2,0.9-2
				c0-0.6-0.2-1.2-0.6-1.7c-0.4-0.5-1.3-1.1-2.8-1.8c-1.5-0.8-2.6-1.6-3.1-2.3c-0.6-0.8-0.8-1.7-0.8-2.6c0-1.3,0.4-2.4,1.3-3.2
				c0.9-0.9,2-1.3,3.3-1.3C656.5,212.2,658.1,213,659.6,214.5z"/>
		</g>
		<rect x="-18.3" y="-16.1" width="795.5" height="338.8"/>
	</g>
</g>
<g id="Calque_1">
	<g id="Calque_2_1_" class="st0">
		<rect y="1.7" class="st5" width="769" height="303.2"/>
	</g>
	<g id="Calque_3" class="st0">
		<g id="Layer_2_2_" class="st1">
			<g id="Layer_6_copy_12_1_">
				<path class="st2" d="M627.5,82.7c-168.2,3.5-335.4,19.7-503.5,26.6c4.5,35.4,6.6,71.2,6.1,106.9c106-8.8,207.7-10.2,311.7-20.1
					c47.9-3.3,94.1-8.1,144.9-6.1c13.3-1.3,26.7,0.1,44.4-4.8c-161.3,8.7-322.4,17.9-483.4,27.6c1.9-8.1,1.4-16.6-1.4-24.5
					c160.9-11.7,322.3-14.3,483.2-29.9c-161.4,6.8-322.1,20.4-483.2,29.9c1.8-8.9,1.3-18.1-1.5-26.7l483.4-27.7
					c-161.6,2.6-322.1,20.6-483.3,27.6c1.8-8.9,1.2-18.1-1.6-26.7c161.4-4.5,321.9-20.4,483.3-27.6C465.5,116.8,304.4,126,143.3,135
					c1.9-8.1,1.4-16.6-1.4-24.5C305.4,103.9,463.7,88.1,627.5,82.7L627.5,82.7z M146.8,212.8c-2.2,0-4.4,0.1-6.6,0.4
					c-2.6-7.9-3.1-16.3-1.4-24.4l6.6-0.4C148.1,197.1,146.3,203.9,146.8,212.8z M145.4,188.4c-2.2,0-4.4,0.1-6.6,0.4
					c-2.7-8.7-3.2-17.8-1.5-26.7c2.2,0,4.4-0.1,6.6-0.4C146.6,170.4,144.9,179.4,145.4,188.4z M143.9,161.8c-2.2,0-4.4,0.1-6.6,0.4
					c-2.7-8.7-3.2-17.8-1.5-26.7c2.2,0,4.4-0.1,6.6-0.4C145.1,143.8,143.4,152.8,143.9,161.8z M142.4,135.2c-2.2,0-4.4,0.1-6.6,0.4
					c-2.6-7.9-3.1-16.3-1.4-24.4l6.6-0.4C143.7,119.6,141.9,126.3,142.4,135.2z"/>
				<path class="st2" d="M149.7,148.1c2.3,2.1,2.5,4.3,4.7,4.2c2.3-0.4,4.1-2.3,4.2-4.7c-0.3-2.3-2.3-4.1-4.7-4.2
					C151.7,143.5,151.8,145.7,149.7,148.1z"/>
				<path class="st2" d="M151.3,174.7c2.3,2.1,2.5,4.3,4.7,4.2c2.4-0.1,4.3-2.2,4.2-4.7c-0.1-2.4-2.2-4.3-4.7-4.2
					C153.2,170.1,153.4,172.3,151.3,174.7z"/>
				<g>
					
						<rect x="277.8" y="110.5" transform="matrix(0.9984 -5.709805e-02 5.709805e-02 0.9984 -8.5556 16.374)" class="st3" width="8.9" height="94.8"/>
					<path class="st6" d="M293.5,208.6l-16.6,1L271,107.2l16.6-1L293.5,208.6z M284.2,201.4l1.1-0.1l-5-86.9l-1.1,0.1L284.2,201.4z"
						/>
				</g>
				<g>
					<path class="st3" d="M621.7,174.5c-17.4,1-32.8-11.1-36-28.3l75.3-4.3l-0.3-4.4c-1.6-24.5-20.3-42.1-43.6-40.8
						c-22.1,1.4-39.7,19-40.9,41.1l-9,0.5c-3.5-22.2-21.3-37.6-43.1-36.4c-22.1,1.3-39.7,19-40.9,41.2l-44.3,2.5l-13.1,31.9
						L393,123.2l-24.7,57.3L307.2,66l-34.6,2l0.8,14.1l8.9-0.5l-0.3-5.2l19.9-1.1l67.3,126.9l25.3-58.9l33.1,55.1l17.4-44l38.6-2.2
						c3.7,23.7,25.9,40,49.6,36.3c11.1-1.7,21.1-7.6,27.9-16.5l-7-5.4c-11.6,15.2-33.3,18.1-48.5,6.5c-6.9-5.2-11.5-12.9-13.1-21.4
						l1.8-0.1v-0.2l82.4-4.7c3.6,23.7,25.8,40,49.6,36.4c11.1-1.7,21-7.6,27.8-16.4l-7-5.4C641.1,169,631.8,173.9,621.7,174.5z
						 M617.8,105.4c16.9-1,30.7,10.8,33.7,28l-66.2,3.8C586.7,120,600.5,106.5,617.8,105.4z M492.2,142.7
						c1.4-17.2,15.3-30.8,32.5-31.8c16.9-1,30.7,10.8,33.7,28L492.2,142.7z"/>
					<path class="st6" d="M369.6,211.1L299.7,79.2L286.1,80l0.3,5.2l-16.6,1l-1.2-21.9l41-2.3L368,171.6l24.5-56.8l32.8,54.2
						l11.1-27l43.4-2.5c2.9-22.5,21.3-40,44.2-41.4c22.4-1.3,41.5,13.8,46.5,36.2l2.3-0.1c2.9-22.4,21.3-39.9,44.2-41.3
						c25.5-1.5,46,17.6,47.7,44.4l0.5,8.3l-74.5,4.3c4.4,12.9,16.9,21.6,30.8,20.8l0,0h0.1c8.9-0.5,17.1-4.9,22.5-11.9l2.4-3.1
						l13.1,10.2l-2.4,3.1c-7.5,9.7-18.2,16.1-30.3,17.9c-12.5,1.9-25-1.1-35.2-8.6c-9.2-6.8-15.6-16.5-18.1-27.5l-76.1,4.4
						c1.9,5.9,5.6,11,10.5,14.8c13.5,10.3,32.8,7.7,43-5.8l2.4-3.1l13.1,10.2l-2.3,3.1c-7.5,9.7-18.2,16.1-30.3,18
						c-24.6,3.8-47.8-12.2-53.3-36l-32.8,1.9l-19.4,49L395.1,152L369.6,211.1z M442.4,150.5L487,148l0.5,3.5
						c3.3,21.6,23.6,36.4,45.1,33c8.8-1.4,16.8-5.6,22.9-12.1l-0.8-0.7c-13.3,14.2-35.6,16.3-51.4,4.3c-7.7-5.8-12.8-14.3-14.5-23.8
						l-0.8-4.3l2.3-0.1l3.9-0.4l85.9-4.9l0.5,3.5c1.6,10.4,7.2,19.6,15.7,25.9c8.5,6.3,19,8.8,29.4,7.2c8.8-1.4,16.8-5.6,22.9-12
						l-0.9-0.7c-6.7,7.1-15.9,11.4-25.7,12c-0.1,0-0.1,0-0.2,0l0,0c-19.3,1.1-36.5-12.4-40-31.4l-0.8-4.3l75.9-4.3v-0.6
						c-1.4-22.3-18.4-38.3-39.5-37.1c-20.1,1.2-36.1,17.3-37.2,37.5l-0.2,3.5l-16,0.9l-0.5-3.5c-3.2-20.6-19.3-34.2-39.1-33.1
						c-20.1,1.2-36.2,17.3-37.3,37.5l-0.2,3.5l-45.3,2.6l-15,36.8l-33-54.5l-24.9,57.8L305,70l-28.3,1.6l0.4,6.3l1.1-0.1l-0.3-5.2
						l26.3-1.5l64.7,122l25.1-58.4l33,54.8L442.4,150.5z M488,146.8l0.4-4.5c1.6-19,17.1-34.2,36.1-35.4
						c18.8-1.1,34.3,11.8,37.8,31.2l0.8,4.3L488,146.8z M524.9,114.7c-13.7,0.8-25.1,10.7-28.1,23.8l56.8-3.3
						C549.5,122.2,538.2,114,524.9,114.7z M656.1,137.1l-75,4.3l0.4-4.5c1.6-19,17.1-34.2,36.1-35.4l0,0
						c18.8-1.1,34.3,11.8,37.8,31.2L656.1,137.1z M589.9,133.1l56.8-3.2c-4-13-15.3-21.3-28.6-20.5
						C604.3,110.1,592.9,120,589.9,133.1z"/>
				</g>
				<polygon class="st3" points="257.4,93.1 248.5,93.6 253.9,188.2 171.9,136.2 177,226.7 185.9,226.2 181.7,152.7 263.8,204.7 
					257.9,101.9 292.2,100 291.7,91.1 				"/>
				<g>
					<polygon class="st3" points="257.4,93.1 248.5,93.6 253.9,188.2 171.9,136.2 177,226.7 185.9,226.2 181.7,152.7 263.8,204.7 
						257.9,101.9 292.2,100 291.7,91.1 					"/>
					<path class="st6" d="M190,229.9l-16.6,1l-5.8-102l82.1,52l-5.2-91l51-2.9l1,16.6l-34.4,2l6.1,106.5L186,160L190,229.9z
						 M180.7,222.6l1.1-0.1l-4.4-77.2l82.1,52l-5.7-99.1l34.4-2l-0.1-1.1l-35.5,2l5.6,98.3l-82.1-52L180.7,222.6z"/>
				</g>
				<path class="st4" d="M617.6,103.2c-17.3,1.1-31.1,14.7-32.5,31.9l66.2-3.8C648.3,114,634.5,102.2,617.6,103.2z"/>
				<path class="st4" d="M524.6,108.5c-17.3,1.1-31.1,14.7-32.5,31.9l66.2-3.8C555.2,119.4,541.4,107.6,524.6,108.5z"/>
			</g>
		</g>
		<g class="st1">
			<path class="st6" d="M487.4,206.1h4.6c2.6,0,4.4,0.1,5.3,0.3c1.3,0.3,2.4,1,3.2,2c0.8,1,1.2,2.3,1.2,3.8s-0.4,2.8-1.2,3.8
				c-0.8,1-1.9,1.7-3.4,2c-1,0.2-3,0.4-5.8,0.4h-1.6v10.7h-2.3L487.4,206.1L487.4,206.1z M489.7,208.3v7.8h3.9
				c1.6,0,2.7-0.1,3.5-0.4c0.7-0.3,1.3-0.7,1.7-1.4c0.4-0.6,0.6-1.4,0.6-2.1c0-0.8-0.2-1.5-0.6-2.1s-1-1.1-1.6-1.4
				c-0.7-0.3-1.8-0.4-3.4-0.4L489.7,208.3L489.7,208.3z"/>
			<path class="st6" d="M505.2,212.1h2.2v2.5c0.7-1,1.4-1.7,2.1-2.2s1.5-0.7,2.3-0.7c0.6,0,1.2,0.2,1.9,0.6l-1.1,1.8
				c-0.5-0.2-0.8-0.3-1.2-0.3c-0.7,0-1.4,0.3-2.1,0.9c-0.7,0.6-1.2,1.5-1.5,2.8c-0.3,1-0.4,2.9-0.4,5.9v5.8h-2.2V212.1z"/>
			<path class="st6" d="M523.7,211.6c2.6,0,4.8,0.9,6.5,2.8c1.6,1.7,2.3,3.8,2.3,6.1c0,2.4-0.8,4.5-2.5,6.2
				c-1.7,1.8-3.8,2.7-6.4,2.7c-2.6,0-4.7-0.9-6.4-2.7s-2.5-3.9-2.5-6.2c0-2.4,0.8-4.4,2.3-6.1C518.9,212.6,521.1,211.6,523.7,211.6z
				 M523.7,213.8c-1.8,0-3.4,0.7-4.7,2s-2,3-2,4.9c0,1.2,0.3,2.4,0.9,3.4s1.4,1.9,2.4,2.5s2.1,0.9,3.3,0.9s2.3-0.3,3.3-0.9
				s1.8-1.4,2.4-2.5c0.6-1.1,0.9-2.2,0.9-3.4c0-1.9-0.7-3.5-2-4.9C527,214.4,525.5,213.8,523.7,213.8z"/>
			<path class="st6" d="M553.6,205.5v23.6h-2.2v-2.9c-0.9,1.1-1.9,2-3.1,2.5s-2.4,0.8-3.7,0.8c-2.4,0-4.5-0.9-6.2-2.6
				c-1.7-1.7-2.6-3.9-2.6-6.4c0-2.4,0.9-4.5,2.6-6.3c1.7-1.7,3.8-2.6,6.2-2.6c1.4,0,2.7,0.3,3.8,0.9c1.1,0.6,2.1,1.5,3,2.7v-9.7
				H553.6z M544.8,213.7c-1.2,0-2.3,0.3-3.4,0.9s-1.8,1.4-2.5,2.5s-0.9,2.2-0.9,3.4s0.3,2.3,0.9,3.4c0.6,1.1,1.4,1.9,2.5,2.6
				s2.1,0.9,3.3,0.9s2.3-0.3,3.4-0.9c1.1-0.6,1.9-1.4,2.5-2.5s0.9-2.2,0.9-3.5c0-2-0.6-3.6-1.9-4.9
				C548.3,214.4,546.7,213.7,544.8,213.7z"/>
			<path class="st6" d="M558.2,212.1h2.2v7.9c0,1.9,0.1,3.3,0.3,4c0.3,1,0.9,1.9,1.8,2.5c0.9,0.6,1.9,0.9,3.2,0.9s2.3-0.3,3.1-0.9
				c0.8-0.6,1.4-1.4,1.8-2.3c0.2-0.7,0.3-2,0.3-4.2v-7.9h2.2v8.3c0,2.3-0.3,4.1-0.8,5.3s-1.4,2.1-2.5,2.8s-2.5,1-4.1,1s-3-0.3-4.1-1
				s-1.9-1.6-2.5-2.8s-0.8-3-0.8-5.4v-8.2L558.2,212.1L558.2,212.1z"/>
			<path class="st6" d="M594.5,215.6l-1.7,1.1c-1.5-2-3.5-3-6.1-3c-2.1,0-3.8,0.7-5.2,2s-2.1,2.9-2.1,4.9c0,1.2,0.3,2.4,0.9,3.5
				c0.6,1.1,1.5,1.9,2.6,2.5s2.3,0.9,3.7,0.9c2.5,0,4.5-1,6.1-3l1.7,1.1c-0.8,1.2-1.9,2.2-3.3,2.8c-1.4,0.7-2.9,1-4.7,1
				c-2.7,0-4.9-0.9-6.7-2.6c-1.8-1.7-2.7-3.8-2.7-6.2c0-1.6,0.4-3.2,1.2-4.6c0.8-1.4,2-2.5,3.4-3.3s3.1-1.2,4.9-1.2
				c1.1,0,2.2,0.2,3.3,0.5s1.9,0.8,2.7,1.3C593.3,214,594,214.7,594.5,215.6z"/>
			<path class="st6" d="M600.6,205.7h2.2v6.3h3.5v1.9h-3.5V229h-2.2v-15.1h-3V212h3V205.7z"/>
			<path class="st6" d="M610.3,205.1c0.5,0,0.9,0.2,1.3,0.5c0.4,0.4,0.5,0.8,0.5,1.3s-0.2,0.9-0.5,1.3c-0.4,0.4-0.8,0.5-1.3,0.5
				s-0.9-0.2-1.3-0.5c-0.4-0.4-0.5-0.8-0.5-1.3s0.2-0.9,0.5-1.3C609.4,205.2,609.8,205.1,610.3,205.1z M609.2,212.1h2.2v17h-2.2
				V212.1z"/>
			<path class="st6" d="M624,211.6c2.6,0,4.8,0.9,6.5,2.8c1.6,1.7,2.3,3.8,2.3,6.1c0,2.4-0.8,4.5-2.5,6.2c-1.7,1.8-3.8,2.7-6.4,2.7
				c-2.6,0-4.7-0.9-6.4-2.7s-2.5-3.9-2.5-6.2c0-2.4,0.8-4.4,2.3-6.1C619.2,212.6,621.3,211.6,624,211.6z M624,213.8
				c-1.8,0-3.4,0.7-4.7,2s-2,3-2,4.9c0,1.2,0.3,2.4,0.9,3.4s1.4,1.9,2.4,2.5s2.1,0.9,3.3,0.9s2.3-0.3,3.3-0.9s1.8-1.4,2.4-2.5
				c0.6-1.1,0.9-2.2,0.9-3.4c0-1.9-0.7-3.5-2-4.9C627.3,214.4,625.8,213.8,624,213.8z"/>
			<path class="st6" d="M636.9,212.1h2.2v3c0.9-1.2,1.8-2,2.9-2.6s2.2-0.9,3.5-0.9s2.4,0.3,3.4,1c1,0.6,1.7,1.5,2.2,2.6
				s0.7,2.8,0.7,5.1v8.8h-2.2V221c0-2-0.1-3.3-0.2-3.9c-0.3-1.1-0.7-2-1.5-2.5c-0.7-0.6-1.7-0.9-2.8-0.9c-1.3,0-2.5,0.4-3.6,1.3
				s-1.7,2-2.1,3.2c-0.2,0.8-0.3,2.4-0.3,4.6v6.2h-2.2L636.9,212.1L636.9,212.1z"/>
			<path class="st6" d="M664.9,213.9l-1.4,1.5c-1.2-1.1-2.3-1.7-3.4-1.7c-0.7,0-1.3,0.2-1.8,0.7s-0.8,1-0.8,1.6s0.2,1.1,0.6,1.6
				c0.4,0.5,1.3,1.1,2.6,1.8c1.6,0.8,2.7,1.7,3.3,2.4c0.6,0.8,0.9,1.7,0.9,2.7c0,1.4-0.5,2.6-1.5,3.5c-1,1-2.2,1.5-3.7,1.5
				c-1,0-1.9-0.2-2.8-0.6c-0.9-0.4-1.6-1-2.2-1.8l1.4-1.6c1.1,1.3,2.3,1.9,3.6,1.9c0.9,0,1.6-0.3,2.2-0.8c0.6-0.6,0.9-1.2,0.9-2
				c0-0.6-0.2-1.2-0.6-1.7c-0.4-0.5-1.3-1.1-2.8-1.8c-1.5-0.8-2.6-1.6-3.1-2.3c-0.6-0.8-0.8-1.7-0.8-2.6c0-1.3,0.4-2.4,1.3-3.2
				c0.9-0.9,2-1.3,3.3-1.3C661.8,211.6,663.3,212.4,664.9,213.9z"/>
		</g>
	</g>
	<g id="Calque_4" class="st0">
		<g class="st1">
			<g id="Layer_2_3_">
				<g id="Layer_6_copy_12_2_">
					<path class="st6" d="M630.5,82.1c-168.2,3.5-335.4,19.7-503.5,26.6c4.5,35.4,6.6,71.2,6.1,106.9c106-8.8,207.7-10.2,311.7-20.1
						c47.9-3.3,94.1-8.1,144.9-6.1c13.3-1.3,26.7,0.1,44.4-4.8c-161.3,8.7-322.4,17.9-483.4,27.6c1.9-8.1,1.4-16.6-1.4-24.5
						c160.9-11.7,322.3-14.3,483.2-29.9c-161.4,6.8-322.1,20.4-483.2,29.9c1.8-8.9,1.3-18.1-1.5-26.7l483.4-27.7
						c-161.6,2.6-322.1,20.6-483.3,27.6c1.8-8.9,1.2-18.1-1.6-26.7c161.4-4.5,321.9-20.4,483.3-27.6
						c-161.2,9.5-322.3,18.7-483.3,27.6c1.9-8.1,1.4-16.6-1.4-24.5C308.4,103.3,466.7,87.6,630.5,82.1L630.5,82.1z M149.8,212.2
						c-2.2,0-4.4,0.1-6.6,0.4c-2.6-7.9-3.1-16.3-1.4-24.4l6.6-0.4C151.1,196.5,149.3,203.3,149.8,212.2z M148.4,187.8
						c-2.2,0-4.4,0.1-6.6,0.4c-2.7-8.7-3.2-17.8-1.5-26.7c2.2,0,4.4-0.1,6.6-0.4C149.6,169.8,147.9,178.8,148.4,187.8z M146.9,161.2
						c-2.2,0-4.4,0.1-6.6,0.4c-2.7-8.7-3.2-17.8-1.5-26.7c2.2,0,4.4-0.1,6.6-0.4C148.1,143.2,146.4,152.2,146.9,161.2z M145.4,134.6
						c-2.2,0-4.4,0.1-6.6,0.4c-2.6-7.9-3.1-16.3-1.4-24.4l6.6-0.4C146.7,119,144.9,125.8,145.4,134.6z"/>
					<path class="st6" d="M152.7,147.5c2.3,2.1,2.5,4.3,4.7,4.2c2.3-0.4,4.1-2.3,4.2-4.7c-0.3-2.3-2.3-4.1-4.7-4.2
						C154.7,142.9,154.8,145.1,152.7,147.5z"/>
					<path class="st6" d="M154.3,174.1c2.3,2.1,2.5,4.3,4.7,4.2c2.4-0.1,4.3-2.2,4.2-4.7c-0.1-2.4-2.2-4.3-4.7-4.2
						C156.2,169.5,156.4,171.7,154.3,174.1z"/>
					<g>
						
							<rect x="280.8" y="109.9" transform="matrix(0.9984 -5.709805e-02 5.709805e-02 0.9984 -8.5165 16.5443)" class="st3" width="8.9" height="94.8"/>
						<path class="st2" d="M296.5,208l-16.6,1L274,106.6l16.6-1L296.5,208z M287.2,200.8l1.1-0.1l-5-86.9l-1.1,0.1L287.2,200.8z"/>
					</g>
					<g>
						<path class="st3" d="M624.7,173.9c-17.4,1-32.8-11.1-36-28.3l75.3-4.3l-0.3-4.4c-1.6-24.5-20.3-42.1-43.6-40.8
							c-22.1,1.4-39.7,19-40.9,41.1l-9,0.5c-3.5-22.2-21.3-37.6-43.1-36.4c-22.1,1.3-39.7,19-40.9,41.2l-44.3,2.5l-13,32L396,122.6
							l-24.7,57.3L310.2,65.4l-34.6,2l0.8,14.1l8.9-0.5l-0.3-5.2l19.9-1.1l67.3,126.9l25.3-58.9l33.1,55.1l17.4-44l38.6-2.2
							c3.7,23.7,25.9,40,49.6,36.3c11.1-1.7,21.1-7.6,27.9-16.5l-7-5.4c-11.6,15.2-33.3,18.1-48.5,6.5c-6.9-5.2-11.5-12.9-13.1-21.4
							l1.8-0.1v-0.2l82.4-4.7c3.6,23.7,25.8,40,49.6,36.4c11.1-1.7,21-7.6,27.8-16.4l-7-5.4C644.1,168.4,634.8,173.3,624.7,173.9z
							 M620.8,104.8c16.9-1,30.7,10.8,33.7,28l-66.2,3.8C589.7,119.4,603.5,105.9,620.8,104.8z M495.2,142.1
							c1.4-17.2,15.3-30.8,32.5-31.8c16.9-1,30.7,10.8,33.7,28L495.2,142.1z"/>
						<path class="st2" d="M372.6,210.5L302.7,78.6l-13.6,0.8l0.3,5.2l-16.6,1l-1.2-21.9l41-2.3L371,171l24.5-56.8l32.8,54.2
							l11.1-27l43.4-2.5c2.9-22.5,21.3-40,44.2-41.4c22.4-1.3,41.5,13.8,46.5,36.2l2.3-0.1c2.9-22.4,21.3-39.9,44.2-41.3
							c25.5-1.5,46,17.6,47.7,44.4l0.5,8.3l-74.5,4.3c4.4,12.9,16.9,21.6,30.8,20.8l0,0h0.1c8.9-0.5,17.1-4.9,22.5-11.9l2.4-3.1
							l13.1,10.2l-2.4,3.1c-7.5,9.7-18.2,16.1-30.3,17.9c-12.5,1.9-25-1.1-35.2-8.6c-9.2-6.8-15.6-16.5-18.1-27.5l-76.1,4.4
							c1.9,5.9,5.6,11,10.5,14.8c13.5,10.3,32.8,7.7,43-5.8l2.4-3.1l13.1,10.2l-2.3,3.1c-7.5,9.7-18.2,16.1-30.3,18
							c-24.6,3.8-47.8-12.2-53.3-36l-32.8,1.9l-19.4,49l-33.3-55.3L372.6,210.5z M445.4,149.9l44.6-2.6l0.5,3.5
							c3.3,21.6,23.6,36.4,45.1,33c8.8-1.4,16.8-5.6,22.9-12.1l-0.8-0.7c-13.3,14.2-35.6,16.3-51.4,4.3
							c-7.7-5.8-12.8-14.3-14.5-23.8l-0.8-4.3l2.3-0.1l3.9-0.4l85.9-4.9l0.5,3.5c1.6,10.4,7.2,19.6,15.7,25.9
							c8.5,6.3,19,8.8,29.4,7.2c8.8-1.4,16.8-5.6,22.9-12l-0.9-0.7c-6.7,7.1-15.9,11.4-25.7,12c-0.1,0-0.1,0-0.2,0l0,0
							c-19.3,1.1-36.5-12.4-40-31.4L584,142l75.9-4.3v-0.6c-1.4-22.3-18.4-38.3-39.5-37.1c-20.1,1.2-36.1,17.3-37.2,37.5L583,141
							l-16,0.9l-0.5-3.5c-3.2-20.6-19.3-34.2-39.1-33.1c-20.1,1.2-36.2,17.3-37.3,37.5l-0.2,3.5l-45.3,2.6l-15,36.8l-33-54.5
							L371.7,189L308,69.4L279.7,71l0.4,6.3l1.1-0.1l-0.3-5.2l26.3-1.5l64.7,122l25.1-58.4l33,54.8L445.4,149.9z M491,146.2l0.4-4.5
							c1.6-19,17.1-34.2,36.1-35.4c18.8-1.1,34.3,11.8,37.8,31.2l0.8,4.3L491,146.2z M527.9,114.1c-13.7,0.8-25.1,10.7-28.1,23.8
							l56.8-3.3C552.5,121.6,541.2,113.4,527.9,114.1z M659.1,136.5l-75,4.3l0.4-4.5c1.6-19,17.1-34.2,36.1-35.4l0,0
							c18.8-1.1,34.3,11.8,37.8,31.2L659.1,136.5z M592.9,132.5l56.8-3.2c-4-13-15.3-21.3-28.6-20.5
							C607.3,109.5,595.9,119.4,592.9,132.5z"/>
					</g>
					<polygon class="st3" points="260.4,92.5 251.5,93 256.9,187.6 174.9,135.6 180,226.1 188.9,225.6 184.7,152.1 266.8,204.1 
						260.9,101.3 295.2,99.4 294.7,90.5 					"/>
					<g>
						<polygon class="st3" points="260.4,92.5 251.5,93 256.9,187.6 174.9,135.6 180,226.1 188.9,225.6 184.7,152.1 266.8,204.1 
							260.9,101.3 295.2,99.4 294.7,90.5 						"/>
						<path class="st2" d="M193,229.3l-16.6,1l-5.8-102l82.1,52l-5.2-91l51-2.9l1,16.6l-34.4,2l6.1,106.5l-82.1-52L193,229.3z
							 M183.7,222l1.1-0.1l-4.4-77.2l82.1,52l-5.7-99.1l34.4-2l-0.1-1.1l-35.5,2l5.6,98.3l-82.1-52L183.7,222z"/>
					</g>
					<path class="st4" d="M620.6,102.6c-17.3,1.1-31.1,14.7-32.5,31.9l66.2-3.8C651.3,113.4,637.5,101.6,620.6,102.6z"/>
					<path class="st4" d="M527.6,107.9c-17.3,1.1-31.1,14.7-32.5,31.9l66.2-3.8C558.2,118.8,544.4,107,527.6,107.9z"/>
				</g>
			</g>
			<g>
				<path class="st6" d="M490.4,205.5h4.6c2.6,0,4.4,0.1,5.3,0.3c1.3,0.3,2.4,1,3.2,2c0.8,1,1.2,2.3,1.2,3.8s-0.4,2.8-1.2,3.8
					c-0.8,1-1.9,1.7-3.4,2c-1,0.2-3,0.4-5.8,0.4h-1.6v10.7h-2.3L490.4,205.5L490.4,205.5z M492.7,207.7v7.8h3.9
					c1.6,0,2.7-0.1,3.5-0.4c0.7-0.3,1.3-0.7,1.7-1.4c0.4-0.6,0.6-1.4,0.6-2.1c0-0.8-0.2-1.5-0.6-2.1s-1-1.1-1.6-1.4
					c-0.7-0.3-1.8-0.4-3.4-0.4L492.7,207.7L492.7,207.7z"/>
				<path class="st6" d="M508.2,211.5h2.2v2.5c0.7-1,1.4-1.7,2.1-2.2c0.7-0.5,1.5-0.7,2.3-0.7c0.6,0,1.2,0.2,1.9,0.6l-1.1,1.8
					c-0.5-0.2-0.8-0.3-1.2-0.3c-0.7,0-1.4,0.3-2.1,0.9c-0.7,0.6-1.2,1.5-1.5,2.8c-0.3,1-0.4,2.9-0.4,5.9v5.8h-2.2L508.2,211.5
					L508.2,211.5z"/>
				<path class="st6" d="M526.7,211c2.6,0,4.8,0.9,6.5,2.8c1.6,1.7,2.3,3.8,2.3,6.1c0,2.4-0.8,4.5-2.5,6.2c-1.7,1.8-3.8,2.7-6.4,2.7
					c-2.6,0-4.7-0.9-6.4-2.7s-2.5-3.9-2.5-6.2c0-2.4,0.8-4.4,2.3-6.1C521.9,212,524.1,211,526.7,211z M526.7,213.2
					c-1.8,0-3.4,0.7-4.7,2s-2,3-2,4.9c0,1.2,0.3,2.4,0.9,3.4s1.4,1.9,2.4,2.5s2.1,0.9,3.3,0.9s2.3-0.3,3.3-0.9s1.8-1.4,2.4-2.5
					c0.6-1.1,0.9-2.2,0.9-3.4c0-1.9-0.7-3.5-2-4.9C530,213.8,528.5,213.2,526.7,213.2z"/>
				<path class="st6" d="M556.6,204.9v23.6h-2.2v-2.9c-0.9,1.1-1.9,2-3.1,2.5s-2.4,0.8-3.7,0.8c-2.4,0-4.5-0.9-6.2-2.6
					c-1.7-1.7-2.6-3.9-2.6-6.4c0-2.4,0.9-4.5,2.6-6.3c1.7-1.7,3.8-2.6,6.2-2.6c1.4,0,2.7,0.3,3.8,0.9c1.1,0.6,2.1,1.5,3,2.7v-9.7
					H556.6z M547.8,213.1c-1.2,0-2.3,0.3-3.4,0.9s-1.8,1.4-2.5,2.5s-0.9,2.2-0.9,3.4s0.3,2.3,0.9,3.4c0.6,1.1,1.4,1.9,2.5,2.6
					s2.1,0.9,3.3,0.9s2.3-0.3,3.4-0.9c1.1-0.6,1.9-1.4,2.5-2.5s0.9-2.2,0.9-3.5c0-2-0.6-3.6-1.9-4.9
					C551.3,213.8,549.7,213.1,547.8,213.1z"/>
				<path class="st6" d="M561.2,211.5h2.2v7.9c0,1.9,0.1,3.3,0.3,4c0.3,1,0.9,1.9,1.8,2.5c0.9,0.6,1.9,0.9,3.2,0.9s2.3-0.3,3.1-0.9
					c0.8-0.6,1.4-1.4,1.8-2.3c0.2-0.7,0.3-2,0.3-4.2v-7.9h2.2v8.3c0,2.3-0.3,4.1-0.8,5.3s-1.4,2.1-2.5,2.8s-2.5,1-4.1,1
					s-3-0.3-4.1-1s-1.9-1.6-2.5-2.8s-0.8-3-0.8-5.4v-8.2L561.2,211.5L561.2,211.5z"/>
				<path class="st6" d="M597.5,215l-1.7,1.1c-1.5-2-3.5-3-6.1-3c-2.1,0-3.8,0.7-5.2,2s-2.1,2.9-2.1,4.9c0,1.2,0.3,2.4,0.9,3.5
					c0.6,1.1,1.5,1.9,2.6,2.5s2.3,0.9,3.7,0.9c2.5,0,4.5-1,6.1-3l1.7,1.1c-0.8,1.2-1.9,2.2-3.3,2.8c-1.4,0.7-2.9,1-4.7,1
					c-2.7,0-4.9-0.9-6.7-2.6c-1.8-1.7-2.7-3.8-2.7-6.2c0-1.6,0.4-3.2,1.2-4.6c0.8-1.4,2-2.5,3.4-3.3s3.1-1.2,4.9-1.2
					c1.1,0,2.2,0.2,3.3,0.5s1.9,0.8,2.7,1.3C596.3,213.4,597,214.1,597.5,215z"/>
				<path class="st6" d="M603.6,205.2h2.2v6.3h3.5v1.9h-3.5v15.1h-2.2v-15.1h-3v-1.9h3V205.2z"/>
				<path class="st6" d="M613.3,204.5c0.5,0,0.9,0.2,1.3,0.5c0.4,0.4,0.5,0.8,0.5,1.3s-0.2,0.9-0.5,1.3c-0.4,0.4-0.8,0.5-1.3,0.5
					s-0.9-0.2-1.3-0.5c-0.4-0.4-0.5-0.8-0.5-1.3s0.2-0.9,0.5-1.3C612.4,204.6,612.8,204.5,613.3,204.5z M612.2,211.5h2.2v17h-2.2
					V211.5z"/>
				<path class="st6" d="M627,211c2.6,0,4.8,0.9,6.5,2.8c1.6,1.7,2.3,3.8,2.3,6.1c0,2.4-0.8,4.5-2.5,6.2c-1.7,1.8-3.8,2.7-6.4,2.7
					c-2.6,0-4.7-0.9-6.4-2.7s-2.5-3.9-2.5-6.2c0-2.4,0.8-4.4,2.3-6.1C622.2,212,624.3,211,627,211z M627,213.2c-1.8,0-3.4,0.7-4.7,2
					s-2,3-2,4.9c0,1.2,0.3,2.4,0.9,3.4s1.4,1.9,2.4,2.5s2.1,0.9,3.3,0.9s2.3-0.3,3.3-0.9s1.8-1.4,2.4-2.5c0.6-1.1,0.9-2.2,0.9-3.4
					c0-1.9-0.7-3.5-2-4.9C630.3,213.8,628.8,213.2,627,213.2z"/>
				<path class="st6" d="M639.9,211.5h2.2v3c0.9-1.2,1.8-2,2.9-2.6s2.2-0.9,3.5-0.9s2.4,0.3,3.4,1c1,0.6,1.7,1.5,2.2,2.6
					s0.7,2.8,0.7,5.1v8.8h-2.2v-8.1c0-2-0.1-3.3-0.2-3.9c-0.3-1.1-0.7-2-1.5-2.5c-0.7-0.6-1.7-0.9-2.8-0.9c-1.3,0-2.5,0.4-3.6,1.3
					s-1.7,2-2.1,3.2c-0.2,0.8-0.3,2.4-0.3,4.6v6.2h-2.2L639.9,211.5L639.9,211.5z"/>
				<path class="st6" d="M667.9,213.3l-1.4,1.5c-1.2-1.1-2.3-1.7-3.4-1.7c-0.7,0-1.3,0.2-1.8,0.7s-0.8,1-0.8,1.6s0.2,1.1,0.6,1.6
					c0.4,0.5,1.3,1.1,2.6,1.8c1.6,0.8,2.7,1.7,3.3,2.4c0.6,0.8,0.9,1.7,0.9,2.7c0,1.4-0.5,2.6-1.5,3.5c-1,1-2.2,1.5-3.7,1.5
					c-1,0-1.9-0.2-2.8-0.6c-0.9-0.4-1.6-1-2.2-1.8l1.4-1.6c1.1,1.3,2.3,1.9,3.6,1.9c0.9,0,1.6-0.3,2.2-0.8c0.6-0.6,0.9-1.2,0.9-2
					c0-0.6-0.2-1.2-0.6-1.7c-0.4-0.5-1.3-1.1-2.8-1.8c-1.5-0.8-2.6-1.6-3.1-2.3c-0.6-0.8-0.8-1.7-0.8-2.6c0-1.3,0.4-2.4,1.3-3.2
					c0.9-0.9,2-1.3,3.3-1.3C664.8,211,666.3,211.8,667.9,213.3z"/>
			</g>
		</g>
	</g>
	<g id="Calque_5" class="st0">
		<g id="Layer_2_4_" class="st1">
			<g id="Layer_6_copy_12_4_">
				<g>
					
						<rect x="277.8" y="109.8" transform="matrix(0.9984 -5.709805e-02 5.709805e-02 0.9984 -8.5156 16.3729)" class="st3" width="8.9" height="94.8"/>
					<path class="st6" d="M293.5,207.9l-16.6,1L271,106.5l16.6-1L293.5,207.9z M284.2,200.7l1.1-0.1l-5-86.9l-1.1,0.1L284.2,200.7z"
						/>
				</g>
				<g>
					<path class="st3" d="M621.7,173.8c-17.4,1-32.8-11.1-36-28.3l75.3-4.3l-0.3-4.4c-1.6-24.5-20.3-42.1-43.6-40.8
						c-22.1,1.4-39.7,19-40.9,41.1l-9,0.5c-3.5-22.2-21.3-37.6-43.1-36.4c-22.1,1.3-39.7,19-40.9,41.2L439,145l-13.1,31.9L393,122.5
						l-24.7,57.3L307.2,65.3l-34.6,2l0.8,14.1l8.9-0.5l-0.3-5.2l19.9-1.1l67.3,126.9l25.3-58.9l33.1,55.1l17.4-44l38.6-2.2
						c3.7,23.7,25.9,40,49.6,36.3c11.1-1.7,21.1-7.6,27.9-16.5l-7-5.4c-11.6,15.2-33.3,18.1-48.5,6.5c-6.9-5.2-11.5-12.9-13.1-21.4
						l1.8-0.1v-0.2l82.4-4.7c3.6,23.7,25.8,40,49.6,36.4c11.1-1.7,21-7.6,27.8-16.4l-7-5.4C641.1,168.3,631.8,173.2,621.7,173.8z
						 M617.8,104.7c16.9-1,30.7,10.8,33.7,28l-66.2,3.8C586.7,119.3,600.5,105.8,617.8,104.7z M492.2,142
						c1.4-17.2,15.3-30.8,32.5-31.8c16.9-1,30.7,10.8,33.7,28L492.2,142z"/>
					<path class="st6" d="M369.6,210.4L299.7,78.5l-13.6,0.8l0.3,5.2l-16.6,1l-1.2-21.9l41-2.3L368,170.9l24.5-56.8l32.8,54.2
						l11.1-27l43.4-2.5c2.9-22.5,21.3-40,44.2-41.4c22.4-1.3,41.5,13.8,46.5,36.2l2.3-0.1c2.9-22.4,21.3-39.9,44.2-41.3
						c25.5-1.5,46,17.6,47.7,44.4l0.5,8.3l-74.5,4.3c4.4,12.9,16.9,21.6,30.8,20.8l0,0h0.1c8.9-0.5,17.1-4.9,22.5-11.9l2.4-3.1
						l13.1,10.2l-2.4,3.1c-7.5,9.7-18.2,16.1-30.3,17.9c-12.5,1.9-25-1.1-35.2-8.6c-9.2-6.8-15.6-16.5-18.1-27.5l-76.1,4.4
						c1.9,5.8,5.6,11,10.5,14.8c13.5,10.3,32.8,7.7,43-5.8l2.4-3.1l13.1,10.2l-2.3,3.1c-7.5,9.7-18.2,16.1-30.3,18
						c-24.6,3.8-47.8-12.2-53.3-36l-32.8,1.9l-19.4,49L395.1,151L369.6,210.4z M442.4,149.8l44.6-2.6l0.5,3.5
						c3.3,21.6,23.6,36.4,45.1,33c8.8-1.4,16.8-5.6,22.9-12.1l-0.8-0.7c-13.3,14.2-35.6,16.3-51.4,4.3c-7.7-5.8-12.8-14.3-14.5-23.8
						l-0.8-4.3l2.3-0.1l3.9-0.4l85.9-4.9l0.5,3.5c1.6,10.4,7.2,19.6,15.7,25.9c8.5,6.3,19,8.8,29.4,7.2c8.8-1.4,16.8-5.6,22.9-12
						l-0.9-0.7c-6.7,7.1-15.9,11.4-25.7,12c-0.1,0-0.1,0-0.2,0l0,0c-19.3,1.1-36.5-12.4-40-31.4l-0.8-4.3l75.9-4.3V137
						c-1.4-22.3-18.4-38.3-39.5-37.1c-20.1,1.2-36.1,17.3-37.2,37.5l-0.2,3.5l-16,0.9l-0.5-3.5c-3.2-20.6-19.3-34.2-39.1-33.1
						c-20.1,1.2-36.2,17.3-37.3,37.5l-0.2,3.5l-45.3,2.6l-15,36.8l-33-54.5l-24.9,57.8L305,69.3l-28.3,1.6l0.4,6.3l1.1-0.1l-0.3-5.2
						l26.3-1.5l64.7,122L394,134l33,54.8L442.4,149.8z M488,146.1l0.4-4.5c1.6-19,17.1-34.2,36.1-35.4c18.8-1.1,34.3,11.8,37.8,31.2
						l0.8,4.3L488,146.1z M524.9,114c-13.7,0.8-25.1,10.7-28.1,23.8l56.8-3.3C549.5,121.5,538.2,113.3,524.9,114z M656.1,136.4
						l-75,4.3l0.4-4.5c1.6-19,17.1-34.2,36.1-35.4l0,0c18.8-1.1,34.3,11.8,37.8,31.2L656.1,136.4z M589.9,132.4l56.8-3.2
						c-4-13-15.3-21.3-28.6-20.5C604.3,109.4,592.9,119.3,589.9,132.4z"/>
				</g>
				<polygon class="st3" points="257.4,92.4 248.5,92.9 253.9,187.5 171.9,135.5 177,226 185.9,225.5 181.7,152 263.8,204 
					257.9,101.2 292.2,99.3 291.7,90.4 				"/>
				<g>
					<polygon class="st3" points="257.4,92.4 248.5,92.9 253.9,187.5 171.9,135.5 177,226 185.9,225.5 181.7,152 263.8,204 
						257.9,101.2 292.2,99.3 291.7,90.4 					"/>
					<path class="st6" d="M190,229.2l-16.6,1l-5.8-102l82.1,52l-5.2-91l51-2.9l1,16.6l-34.4,2l6.1,106.5l-82.1-52L190,229.2z
						 M180.7,221.9l1.1-0.1l-4.4-77.2l82.1,52l-5.7-99.1l34.4-2l-0.1-1.1l-35.5,2l5.6,98.3l-82.1-52L180.7,221.9z"/>
				</g>
				<path class="st4" d="M617.6,102.5c-17.3,1.1-31.1,14.7-32.5,31.9l66.2-3.8C648.3,113.3,634.5,101.5,617.6,102.5z"/>
				<path class="st4" d="M524.6,107.8c-17.3,1.1-31.1,14.7-32.5,31.9l66.2-3.8C555.2,118.7,541.4,106.9,524.6,107.8z"/>
			</g>
		</g>
		<g class="st1">
			<path class="st6" d="M487.4,205.4h4.6c2.6,0,4.4,0.1,5.3,0.3c1.3,0.3,2.4,1,3.2,2c0.8,1,1.2,2.3,1.2,3.8s-0.4,2.8-1.2,3.8
				c-0.8,1-1.9,1.7-3.4,2c-1,0.2-3,0.4-5.8,0.4h-1.6v10.7h-2.3L487.4,205.4L487.4,205.4z M489.7,207.6v7.8h3.9
				c1.6,0,2.7-0.1,3.5-0.4c0.7-0.3,1.3-0.7,1.7-1.4c0.4-0.6,0.6-1.4,0.6-2.1c0-0.8-0.2-1.5-0.6-2.1s-1-1.1-1.6-1.4
				c-0.7-0.3-1.8-0.4-3.4-0.4L489.7,207.6L489.7,207.6z"/>
			<path class="st6" d="M505.2,211.4h2.2v2.5c0.7-1,1.4-1.7,2.1-2.2s1.5-0.7,2.3-0.7c0.6,0,1.2,0.2,1.9,0.6l-1.1,1.8
				c-0.5-0.2-0.8-0.3-1.2-0.3c-0.7,0-1.4,0.3-2.1,0.9c-0.7,0.6-1.2,1.5-1.5,2.8c-0.3,1-0.4,2.9-0.4,5.9v5.8h-2.2V211.4z"/>
			<path class="st6" d="M523.7,210.9c2.6,0,4.8,0.9,6.5,2.8c1.6,1.7,2.3,3.8,2.3,6.1c0,2.4-0.8,4.5-2.5,6.2
				c-1.7,1.8-3.8,2.7-6.4,2.7c-2.6,0-4.7-0.9-6.4-2.7s-2.5-3.9-2.5-6.2c0-2.4,0.8-4.4,2.3-6.1C518.9,211.9,521.1,210.9,523.7,210.9z
				 M523.7,213.1c-1.8,0-3.4,0.7-4.7,2s-2,3-2,4.9c0,1.2,0.3,2.4,0.9,3.4s1.4,1.9,2.4,2.5s2.1,0.9,3.3,0.9s2.3-0.3,3.3-0.9
				s1.8-1.4,2.4-2.5c0.6-1.1,0.9-2.2,0.9-3.4c0-1.9-0.7-3.5-2-4.9C527,213.7,525.5,213.1,523.7,213.1z"/>
			<path class="st6" d="M553.6,204.8v23.6h-2.2v-2.9c-0.9,1.1-1.9,2-3.1,2.5s-2.4,0.8-3.7,0.8c-2.4,0-4.5-0.9-6.2-2.6
				c-1.7-1.7-2.6-3.9-2.6-6.4c0-2.4,0.9-4.5,2.6-6.3c1.7-1.7,3.8-2.6,6.2-2.6c1.4,0,2.7,0.3,3.8,0.9c1.1,0.6,2.1,1.5,3,2.7v-9.7
				H553.6z M544.8,213c-1.2,0-2.3,0.3-3.4,0.9s-1.8,1.4-2.5,2.5s-0.9,2.2-0.9,3.4s0.3,2.3,0.9,3.4c0.6,1.1,1.4,1.9,2.5,2.6
				s2.1,0.9,3.3,0.9s2.3-0.3,3.4-0.9c1.1-0.6,1.9-1.4,2.5-2.5s0.9-2.2,0.9-3.5c0-2-0.6-3.6-1.9-4.9C548.3,213.7,546.7,213,544.8,213
				z"/>
			<path class="st6" d="M558.2,211.4h2.2v7.9c0,1.9,0.1,3.3,0.3,4c0.3,1,0.9,1.9,1.8,2.5c0.9,0.6,1.9,0.9,3.2,0.9s2.3-0.3,3.1-0.9
				c0.8-0.6,1.4-1.4,1.8-2.3c0.2-0.7,0.3-2,0.3-4.2v-7.9h2.2v8.3c0,2.3-0.3,4.1-0.8,5.3s-1.4,2.1-2.5,2.8s-2.5,1-4.1,1s-3-0.3-4.1-1
				s-1.9-1.6-2.5-2.8s-0.8-3-0.8-5.4v-8.2L558.2,211.4L558.2,211.4z"/>
			<path class="st6" d="M594.5,214.9l-1.7,1.1c-1.5-2-3.5-3-6.1-3c-2.1,0-3.8,0.7-5.2,2s-2.1,2.9-2.1,4.9c0,1.2,0.3,2.4,0.9,3.5
				c0.6,1.1,1.5,1.9,2.6,2.5s2.3,0.9,3.7,0.9c2.5,0,4.5-1,6.1-3l1.7,1.1c-0.8,1.2-1.9,2.2-3.3,2.8c-1.4,0.7-2.9,1-4.7,1
				c-2.7,0-4.9-0.9-6.7-2.6c-1.8-1.7-2.7-3.8-2.7-6.2c0-1.6,0.4-3.2,1.2-4.6c0.8-1.4,2-2.5,3.4-3.3s3.1-1.2,4.9-1.2
				c1.1,0,2.2,0.2,3.3,0.5s1.9,0.8,2.7,1.3C593.3,213.3,594,214,594.5,214.9z"/>
			<path class="st6" d="M600.6,205.1h2.2v6.3h3.5v1.9h-3.5v15.1h-2.2v-15.1h-3v-1.9h3V205.1z"/>
			<path class="st6" d="M610.3,204.4c0.5,0,0.9,0.2,1.3,0.5c0.4,0.4,0.5,0.8,0.5,1.3s-0.2,0.9-0.5,1.3c-0.4,0.4-0.8,0.5-1.3,0.5
				s-0.9-0.2-1.3-0.5c-0.4-0.4-0.5-0.8-0.5-1.3s0.2-0.9,0.5-1.3C609.4,204.5,609.8,204.4,610.3,204.4z M609.2,211.4h2.2v17h-2.2
				V211.4z"/>
			<path class="st6" d="M624,210.9c2.6,0,4.8,0.9,6.5,2.8c1.6,1.7,2.3,3.8,2.3,6.1c0,2.4-0.8,4.5-2.5,6.2c-1.7,1.8-3.8,2.7-6.4,2.7
				c-2.6,0-4.7-0.9-6.4-2.7s-2.5-3.9-2.5-6.2c0-2.4,0.8-4.4,2.3-6.1C619.2,211.9,621.3,210.9,624,210.9z M624,213.1
				c-1.8,0-3.4,0.7-4.7,2s-2,3-2,4.9c0,1.2,0.3,2.4,0.9,3.4s1.4,1.9,2.4,2.5s2.1,0.9,3.3,0.9s2.3-0.3,3.3-0.9s1.8-1.4,2.4-2.5
				c0.6-1.1,0.9-2.2,0.9-3.4c0-1.9-0.7-3.5-2-4.9C627.3,213.7,625.8,213.1,624,213.1z"/>
			<path class="st6" d="M636.9,211.4h2.2v3c0.9-1.2,1.8-2,2.9-2.6s2.2-0.9,3.5-0.9s2.4,0.3,3.4,1c1,0.6,1.7,1.5,2.2,2.6
				s0.7,2.8,0.7,5.1v8.8h-2.2v-8.1c0-2-0.1-3.3-0.2-3.9c-0.3-1.1-0.7-2-1.5-2.5c-0.7-0.6-1.7-0.9-2.8-0.9c-1.3,0-2.5,0.4-3.6,1.3
				s-1.7,2-2.1,3.2c-0.2,0.8-0.3,2.4-0.3,4.6v6.2h-2.2L636.9,211.4L636.9,211.4z"/>
			<path class="st6" d="M664.9,213.2l-1.4,1.5c-1.2-1.1-2.3-1.7-3.4-1.7c-0.7,0-1.3,0.2-1.8,0.7s-0.8,1-0.8,1.6s0.2,1.1,0.6,1.6
				c0.4,0.5,1.3,1.1,2.6,1.8c1.6,0.8,2.7,1.7,3.3,2.4c0.6,0.8,0.9,1.7,0.9,2.7c0,1.4-0.5,2.6-1.5,3.5c-1,1-2.2,1.5-3.7,1.5
				c-1,0-1.9-0.2-2.8-0.6c-0.9-0.4-1.6-1-2.2-1.8l1.4-1.6c1.1,1.3,2.3,1.9,3.6,1.9c0.9,0,1.6-0.3,2.2-0.8c0.6-0.6,0.9-1.2,0.9-2
				c0-0.6-0.2-1.2-0.6-1.7c-0.4-0.5-1.3-1.1-2.8-1.8c-1.5-0.8-2.6-1.6-3.1-2.3c-0.6-0.8-0.8-1.7-0.8-2.6c0-1.3,0.4-2.4,1.3-3.2
				c0.9-0.9,2-1.3,3.3-1.3C661.8,210.9,663.3,211.7,664.9,213.2z"/>
		</g>
		<g class="st1">
			<g id="Layer_2_5_">
				<g id="Layer_6_copy_12_3_">
					<path class="st6" d="M630.5,81.4C462.3,84.9,295.1,101.1,127,108c4.5,35.4,6.6,71.2,6.1,106.9c106-8.8,207.7-10.2,311.7-20.1
						c47.9-3.3,94.1-8.1,144.9-6.1c13.3-1.3,26.7,0.1,44.4-4.8c-161.3,8.7-322.4,17.9-483.4,27.6c1.9-8.1,1.4-16.6-1.4-24.5
						c160.9-11.7,322.3-14.3,483.2-29.9c-161.4,6.8-322.1,20.4-483.2,29.9c1.8-8.9,1.3-18.1-1.5-26.7l483.4-27.7
						c-161.6,2.6-322.1,20.6-483.3,27.6c1.8-8.9,1.2-18.1-1.6-26.7c161.4-4.5,321.9-20.4,483.3-27.6
						c-161.2,9.5-322.3,18.7-483.3,27.6c1.9-8.1,1.4-16.6-1.4-24.5C308.4,102.6,466.7,86.9,630.5,81.4L630.5,81.4z M149.8,211.5
						c-2.2,0-4.4,0.1-6.6,0.4c-2.6-7.9-3.1-16.3-1.4-24.4l6.6-0.4C151.1,195.8,149.3,202.6,149.8,211.5z M148.4,187.1
						c-2.2,0-4.4,0.1-6.6,0.4c-2.7-8.7-3.2-17.8-1.5-26.7c2.2,0,4.4-0.1,6.6-0.4C149.6,169.1,147.9,178.1,148.4,187.1z M146.9,160.5
						c-2.2,0-4.4,0.1-6.6,0.4c-2.7-8.7-3.2-17.8-1.5-26.7c2.2,0,4.4-0.1,6.6-0.4C148.1,142.5,146.4,151.5,146.9,160.5z M145.4,133.9
						c-2.2,0-4.4,0.1-6.6,0.4c-2.6-7.9-3.1-16.3-1.4-24.4l6.6-0.4C146.7,118.3,144.9,125.1,145.4,133.9z"/>
					<path class="st6" d="M152.7,146.8c2.3,2.1,2.5,4.3,4.7,4.2c2.3-0.4,4.1-2.3,4.2-4.7c-0.3-2.3-2.3-4.1-4.7-4.2
						C154.7,142.2,154.8,144.5,152.7,146.8z"/>
					<path class="st6" d="M154.3,173.4c2.3,2.1,2.5,4.3,4.7,4.2c2.4-0.1,4.3-2.2,4.2-4.7c-0.1-2.4-2.2-4.3-4.7-4.2
						C156.2,168.8,156.4,171,154.3,173.4z"/>
					<g>
						
							<rect x="280.8" y="109.2" transform="matrix(0.9984 -5.709805e-02 5.709805e-02 0.9984 -8.4765 16.5432)" class="st3" width="8.9" height="94.8"/>
						<path class="st2" d="M296.5,207.3l-16.6,1L274,105.9l16.6-1L296.5,207.3z M287.2,200.1l1.1-0.1l-5-86.9l-1.1,0.1L287.2,200.1z
							"/>
					</g>
					<g>
						<path class="st3" d="M624.7,173.2c-17.4,1-32.8-11.1-36-28.3l75.3-4.3l-0.3-4.4c-1.6-24.5-20.3-42.1-43.6-40.8
							c-22.1,1.4-39.7,19-40.9,41.1l-9,0.5c-3.5-22.2-21.3-37.6-43.1-36.4c-22.1,1.3-39.7,19-40.9,41.2l-44.3,2.5l-13.1,31.9
							L396,121.9l-24.7,57.3L310.2,64.7l-34.6,2l0.8,14.1l8.9-0.5L285,75l19.9-1.1l67.3,126.9l25.3-58.9l33.1,55.1l17.4-44l38.6-2.2
							c3.7,23.7,25.9,40,49.6,36.3c11.1-1.7,21.1-7.6,27.9-16.5l-7-5.4c-11.6,15.2-33.3,18.1-48.5,6.5c-6.9-5.2-11.5-12.9-13.1-21.4
							l1.8-0.1V150l82.4-4.7c3.6,23.7,25.8,40,49.6,36.4c11.1-1.7,21-7.6,27.8-16.4l-7-5.4C644.1,167.7,634.8,172.6,624.7,173.2z
							 M620.8,104.1c16.9-1,30.7,10.8,33.7,28l-66.2,3.8C589.7,118.7,603.5,105.2,620.8,104.1z M495.2,141.4
							c1.4-17.2,15.3-30.8,32.5-31.8c16.9-1,30.7,10.8,33.7,28L495.2,141.4z"/>
						<path class="st2" d="M372.6,209.8L302.7,77.9l-13.6,0.8l0.3,5.2l-16.6,1L271.5,63l41-2.3L371,170.3l24.5-56.8l32.8,54.2
							l11.1-27l43.4-2.5c2.9-22.5,21.3-40,44.2-41.4c22.4-1.3,41.5,13.8,46.5,36.2l2.3-0.1c2.9-22.4,21.3-39.9,44.2-41.3
							c25.5-1.5,46,17.6,47.7,44.4l0.5,8.3l-74.5,4.3c4.4,12.9,16.9,21.6,30.8,20.8l0,0h0.1c8.9-0.5,17.1-4.9,22.5-11.9l2.4-3.1
							l13.1,10.2l-2.4,3.1c-7.5,9.7-18.2,16.1-30.3,17.9c-12.5,1.9-25-1.1-35.2-8.6c-9.2-6.8-15.6-16.5-18.1-27.5l-76.1,4.4
							c1.9,5.9,5.6,11,10.5,14.8c13.5,10.3,32.8,7.7,43-5.8l2.4-3.1l13.1,10.2l-2.3,3.1c-7.5,9.7-18.2,16.1-30.3,18
							c-24.6,3.8-47.8-12.2-53.3-36l-32.8,1.9l-19.4,49l-33.3-55.3L372.6,209.8z M445.4,149.2l44.6-2.6l0.5,3.5
							c3.3,21.6,23.6,36.4,45.1,33c8.8-1.4,16.8-5.6,22.9-12.1l-0.8-0.7c-13.3,14.2-35.6,16.3-51.4,4.3
							c-7.7-5.8-12.8-14.3-14.5-23.8l-0.8-4.3l2.3-0.1l3.9-0.4l85.9-4.9l0.5,3.5c1.6,10.4,7.2,19.6,15.7,25.9
							c8.5,6.3,19,8.8,29.4,7.2c8.8-1.4,16.8-5.6,22.9-12l-0.9-0.7c-6.7,7.1-15.9,11.4-25.7,12c-0.1,0-0.1,0-0.2,0l0,0
							c-19.3,1.1-36.5-12.4-40-31.4l-0.8-4.3l75.9-4.3v-0.6c-1.4-22.3-18.4-38.3-39.5-37.1c-20.1,1.2-36.1,17.3-37.2,37.5l-0.2,3.5
							l-16,0.9l-0.5-3.5c-3.2-20.6-19.3-34.2-39.1-33.1c-20.1,1.2-36.2,17.3-37.3,37.5l-0.2,3.5l-45.3,2.6l-15,36.8l-33-54.5
							l-24.9,57.8L308,68.7l-28.3,1.6l0.4,6.3l1.1-0.1l-0.3-5.2l26.3-1.5l64.7,122l25.1-58.4l33,54.8L445.4,149.2z M491,145.5
							l0.4-4.5c1.6-19,17.1-34.2,36.1-35.4c18.8-1.1,34.3,11.8,37.8,31.2l0.8,4.3L491,145.5z M527.9,113.4
							c-13.7,0.8-25.1,10.7-28.1,23.8l56.8-3.3C552.5,120.9,541.2,112.7,527.9,113.4z M659.1,135.8l-75,4.3l0.4-4.5
							c1.6-19,17.1-34.2,36.1-35.4l0,0c18.8-1.1,34.3,11.8,37.8,31.2L659.1,135.8z M592.9,131.8l56.8-3.2c-4-13-15.3-21.3-28.6-20.5
							C607.3,108.8,595.9,118.7,592.9,131.8z"/>
					</g>
					<polygon class="st3" points="260.4,91.8 251.5,92.3 256.9,186.9 174.9,134.9 180,225.4 188.9,224.9 184.7,151.4 266.8,203.4 
						260.9,100.6 295.2,98.7 294.7,89.8 					"/>
					<g>
						<polygon class="st3" points="260.4,91.8 251.5,92.3 256.9,186.9 174.9,134.9 180,225.4 188.9,224.9 184.7,151.4 266.8,203.4 
							260.9,100.6 295.2,98.7 294.7,89.8 						"/>
						<path class="st2" d="M193,228.6l-16.6,1l-5.8-102l82.1,52l-5.2-91l51-2.9l1,16.6l-34.4,2l6.1,106.5l-82.1-52L193,228.6z
							 M183.7,221.3l1.1-0.1l-4.4-77.2l82.1,52l-5.7-99l34.4-2l-0.1-1.1l-35.5,2l5.6,98.3l-82.1-52L183.7,221.3z"/>
					</g>
					<path class="st4" d="M620.6,101.9c-17.3,1.1-31.1,14.7-32.5,31.9l66.2-3.8C651.3,112.7,637.5,100.9,620.6,101.9z"/>
					<path class="st4" d="M527.6,107.2c-17.3,1.1-31.1,14.7-32.5,31.9l66.2-3.8C558.2,118.1,544.4,106.3,527.6,107.2z"/>
				</g>
			</g>
		</g>
	</g>
	<g id="Calque_5_-_copie_2">
		<g>
			<path class="st3" d="M484.5,244.6h6.9c4,0,6.6,0.2,8,0.5c2,0.5,3.6,1.5,4.9,3s1.9,3.4,1.9,5.7s-0.6,4.2-1.8,5.7
				c-1.2,1.5-2.9,2.5-5.1,3c-1.6,0.4-4.5,0.6-8.8,0.6H488v16.1h-3.5V244.6z M488,248v11.8l5.9,0.1c2.4,0,4.1-0.2,5.2-0.6
				s2-1.1,2.6-2.1s0.9-2,0.9-3.2s-0.3-2.2-0.9-3.2s-1.5-1.7-2.5-2.1c-1-0.4-2.7-0.6-5.1-0.6L488,248L488,248z"/>
			<path class="st3" d="M511.3,253.6h3.4v3.7c1-1.5,2.1-2.6,3.2-3.3c1.1-0.7,2.3-1.1,3.5-1.1c0.9,0,1.9,0.3,2.9,0.9l-1.7,2.8
				c-0.7-0.3-1.3-0.4-1.7-0.4c-1.1,0-2.2,0.5-3.2,1.4s-1.8,2.3-2.3,4.2c-0.4,1.5-0.6,4.4-0.6,8.9v8.7h-3.4v-25.8L511.3,253.6
				L511.3,253.6z"/>
			<path class="st3" d="M539.2,252.9c4,0,7.2,1.4,9.8,4.3c2.4,2.6,3.5,5.7,3.5,9.3c0,3.6-1.2,6.7-3.7,9.4c-2.5,2.7-5.7,4-9.6,4
				c-3.9,0-7.2-1.3-9.7-4s-3.7-5.8-3.7-9.4s1.2-6.6,3.5-9.2C532,254.4,535.3,252.9,539.2,252.9z M539.2,256.2c-2.7,0-5.1,1-7.1,3
				s-3,4.5-3,7.4c0,1.9,0.4,3.6,1.3,5.2c0.9,1.6,2.1,2.8,3.6,3.7c1.5,0.9,3.2,1.3,5,1.3s3.5-0.4,5-1.3s2.7-2.1,3.6-3.7
				c0.9-1.6,1.3-3.3,1.3-5.2c0-2.9-1-5.3-3-7.4C544.3,257.2,542,256.2,539.2,256.2z"/>
			<path class="st3" d="M584.3,243.7v35.6H581v-4.4c-1.4,1.7-2.9,2.9-4.7,3.8c-1.7,0.8-3.6,1.3-5.6,1.3c-3.6,0-6.7-1.3-9.3-4
				c-2.6-2.6-3.9-5.8-3.9-9.6c0-3.7,1.3-6.9,3.9-9.5c2.6-2.6,5.7-3.9,9.4-3.9c2.1,0,4,0.4,5.7,1.3c1.7,0.9,3.2,2.2,4.5,4v-14.6
				L584.3,243.7L584.3,243.7z M571.1,256.1c-1.8,0-3.5,0.5-5.1,1.4s-2.8,2.2-3.7,3.8c-0.9,1.6-1.4,3.4-1.4,5.2
				c0,1.8,0.5,3.5,1.4,5.2c0.9,1.6,2.2,2.9,3.7,3.9c1.6,0.9,3.2,1.4,5,1.4s3.5-0.5,5.1-1.4s2.9-2.1,3.7-3.7s1.3-3.3,1.3-5.3
				c0-3-1-5.4-2.9-7.4C576.4,257.1,574,256.1,571.1,256.1z"/>
			<path class="st3" d="M591.4,253.6h3.3v12c0,2.9,0.2,4.9,0.5,6c0.5,1.6,1.4,2.8,2.7,3.7c1.3,0.9,2.9,1.4,4.8,1.4s3.4-0.4,4.7-1.3
				s2.2-2.1,2.7-3.5c0.3-1,0.5-3.1,0.5-6.3v-12h3.4v12.6c0,3.5-0.4,6.2-1.2,8s-2.1,3.2-3.7,4.2c-1.7,1-3.7,1.5-6.2,1.5
				s-4.6-0.5-6.3-1.5s-2.9-2.4-3.7-4.2s-1.2-4.5-1.2-8.2v-12.4L591.4,253.6L591.4,253.6z"/>
			<path class="st3" d="M646.1,258.9l-2.6,1.6c-2.3-3-5.3-4.5-9.3-4.5c-3.1,0-5.7,1-7.8,3s-3.1,4.5-3.1,7.3c0,1.9,0.5,3.6,1.4,5.3
				c0.9,1.6,2.3,2.9,3.9,3.8s3.5,1.4,5.6,1.4c3.8,0,6.8-1.5,9.2-4.5l2.6,1.7c-1.2,1.8-2.9,3.3-4.9,4.3c-2.1,1-4.4,1.5-7.1,1.5
				c-4.1,0-7.4-1.3-10.1-3.9c-2.7-2.6-4-5.7-4-9.4c0-2.5,0.6-4.8,1.9-6.9c1.2-2.1,3-3.8,5.2-5s4.6-1.8,7.3-1.8
				c1.7,0,3.3,0.3,4.9,0.8s2.9,1.2,4,2C644.4,256.6,645.3,257.6,646.1,258.9z"/>
			<path class="st3" d="M655.3,244.1h3.3v9.5h5.2v2.9h-5.2v22.8h-3.3v-22.8h-4.5v-2.9h4.5V244.1z"/>
			<path class="st3" d="M669.9,243c0.8,0,1.4,0.3,1.9,0.8s0.8,1.2,0.8,1.9s-0.3,1.4-0.8,1.9s-1.2,0.8-1.9,0.8s-1.4-0.3-1.9-0.8
				s-0.8-1.2-0.8-1.9c0-0.8,0.3-1.4,0.8-1.9S669.2,243,669.9,243z M668.3,253.6h3.3v25.7h-3.3V253.6z"/>
			<path class="st3" d="M690.6,252.9c4,0,7.2,1.4,9.8,4.3c2.4,2.6,3.5,5.7,3.5,9.3c0,3.6-1.2,6.7-3.7,9.4c-2.5,2.7-5.7,4-9.6,4
				c-3.9,0-7.2-1.3-9.7-4s-3.7-5.8-3.7-9.4s1.2-6.6,3.5-9.2C683.3,254.4,686.6,252.9,690.6,252.9z M690.6,256.2c-2.7,0-5.1,1-7.1,3
				s-3,4.5-3,7.4c0,1.9,0.4,3.6,1.3,5.2c0.9,1.6,2.1,2.8,3.6,3.7c1.5,0.9,3.2,1.3,5,1.3s3.5-0.4,5-1.3s2.7-2.1,3.6-3.7
				c0.9-1.6,1.3-3.3,1.3-5.2c0-2.9-1-5.3-3-7.4C695.7,257.2,693.3,256.2,690.6,256.2z"/>
			<path class="st3" d="M710.1,253.6h3.3v4.6c1.3-1.8,2.8-3.1,4.4-4s3.3-1.3,5.2-1.3s3.6,0.5,5.1,1.5s2.6,2.3,3.3,3.9
				c0.7,1.7,1.1,4.2,1.1,7.7v13.2h-3.3V267c0-3-0.1-4.9-0.4-5.9c-0.4-1.7-1.1-3-2.2-3.8c-1.1-0.9-2.5-1.3-4.2-1.3
				c-2,0-3.8,0.7-5.4,2s-2.6,3-3.1,4.9c-0.3,1.3-0.5,3.6-0.5,7v9.4h-3.3L710.1,253.6L710.1,253.6z"/>
			<path class="st3" d="M752.4,256.4l-2.1,2.2c-1.8-1.7-3.5-2.6-5.2-2.6c-1.1,0-2,0.4-2.8,1.1s-1.1,1.5-1.1,2.5
				c0,0.8,0.3,1.6,0.9,2.4c0.6,0.8,2,1.7,4,2.7c2.5,1.3,4.1,2.5,5,3.7s1.3,2.5,1.3,4c0,2.1-0.7,3.9-2.2,5.4s-3.3,2.2-5.6,2.2
				c-1.5,0-2.9-0.3-4.2-1c-1.3-0.6-2.5-1.5-3.3-2.7l2.1-2.4c1.7,1.9,3.5,2.9,5.4,2.9c1.3,0,2.5-0.4,3.4-1.3c0.9-0.8,1.4-1.8,1.4-3
				c0-0.9-0.3-1.8-0.9-2.5c-0.6-0.7-2-1.6-4.2-2.7c-2.3-1.2-3.9-2.4-4.7-3.5c-0.8-1.2-1.3-2.5-1.3-4c0-1.9,0.7-3.6,2-4.9
				c1.3-1.3,3-1.9,5-1.9C747.7,252.9,750,254.1,752.4,256.4z"/>
		</g>
		<path class="st2" d="M751.8,136.4l-270.7,16.4c-7.7,0.5-14.4-5.4-14.8-13.1l-0.8-13.5c-0.5-7.7,5.4-14.4,13.1-14.8L749.3,95
			c7.7-0.5,14.4,5.4,14.8,13.1l0.8,13.5C765.4,129.3,759.5,135.9,751.8,136.4z"/>
		<g>
			<g>
				
					<rect x="176.5" y="103.3" transform="matrix(0.9984 -5.713430e-02 5.713430e-02 0.9984 -9.4745 10.5266)" class="st2" width="5.7" height="135.3"/>
				<path class="st7" d="M180.2,101.1l-4,0.2l-1.7,0.1l-4,0.2l0.2,4l7.5,131.1l0.2,4l4-0.2l1.7-0.1l4-0.2l-0.2-4l-7.5-131.1
					L180.2,101.1L180.2,101.1z"/>
			</g>
			<g>
				<path class="st3" d="M211.5,41.6l-37.2,2.2l0.5,7.9l-4.7,0.3l-0.7-12.6l45.1-2.5L310,215.2l37.4-87l49.8,82.2l21.9-53.6l68-3.9
					l0.2-3.9c1.6-31.2,26.4-56.2,57.6-58c1.2-0.1,2.4-0.1,3.5-0.1c29.3,0,52.2,20.6,57,51.3l0.6,3.9l21.4-1.2l0.2-3.9
					c1.7-31.1,26.5-56.1,57.6-58c1.1-0.1,2.3-0.1,3.4-0.1c31.4,0,55.7,24.2,57.8,57.5v2.3l-114.2,6.5l0.9,4.8
					c5,26.9,28.4,46.4,55.7,46.4c1,0,2.1,0,3.1-0.1h0.9l0.1,0.2c14.1-1.1,27.1-7.3,36.8-17.6l0.9-1l3.7,2.8l-1.1,1.2
					c-9.3,10-21.9,16.6-35.4,18.7c-3.1,0.5-6.2,0.7-9.3,0.7c-13,0-25.5-4.1-36.2-11.9c-13.2-9.6-21.8-23.9-24.3-40.1l-0.6-4
					l-128.3,7.3l-5.7,0.6l-1.9,0.1l0.9,4.8c2.5,13.9,10.1,26.3,21.3,34.9c10,7.6,21.8,11.6,34.3,11.6c15.6,0,30.7-6.5,41.3-17.8
					l0.9-1l3.7,2.8l-1.1,1.2c-9.4,10.1-21.6,16.6-35.4,18.8c-3.1,0.5-6.2,0.7-9.3,0.7c-29.9,0-55.9-22.3-60.5-51.9l-0.6-4l-65,3.8
					L397.9,222L348,139.1l-38.1,88.3L211.5,41.6z M548.3,95.5c-1.1,0-2.1,0-3.2,0.1c-27.9,1.8-50.8,24.1-53.1,52l-0.4,5l109.9-6.3
					l-0.9-4.8C595.7,114,574.7,95.5,548.3,95.5z M688.7,87.3c-1,0-2.1,0-3.2,0.1c-28,1.8-50.9,24.1-53.1,52l-0.4,5l109.8-6.3
					l-0.8-4.8C736,105.8,715,87.3,688.7,87.3z"/>
				<path class="st3" d="M213.7,38.3l96.4,180.4l37.5-87.2l49.8,82.3l22.7-55.5l68.4-3.9l0.3-5.2c1.6-30.4,25.8-54.8,56.2-56.6
					c1.2-0.1,2.3-0.1,3.4-0.1c28.2,0,50.9,20.1,55.6,50l0.8,5.2l24.1-1.4l0.3-5.2c1.7-30.4,25.9-54.7,56.2-56.6
					c1.1-0.1,2.2-0.1,3.3-0.1c30.2,0,54.2,23.6,56.3,56.1v0.8l-114.5,6.5l1.2,6.5c5.1,27.6,29.4,47.6,57.2,47.6c1.1,0,2.1,0,3.2-0.1
					c0,0,0.1,0,0,0.2c14.8-0.9,28.7-7.4,38.8-18.1l1.3,1c-9.1,9.8-21.2,16.2-34.5,18.2c-3,0.5-6.1,0.7-9.1,0.7
					c-12.6,0-24.9-4-35.3-11.6c-12.9-9.4-21.3-23.3-23.7-39.1l-0.8-5.3l-129.7,7.4l-5.8,0.6l-3.5,0.2l1.2,6.5
					c2.6,14.3,10.4,27,21.9,35.8c10.5,8,22.9,11.9,35.2,11.9c15.6,0,31.1-6.3,42.4-18.3l1.3,1c-9.1,9.8-21.1,16.2-34.5,18.3
					c-3.1,0.5-6.1,0.7-9.1,0.7c-28.9,0-54.5-21.2-59-50.6l-0.8-5.3l-67.3,3.9l-23.3,58.9L348,136l-38,88.1L212.4,40l-39.7,2.3
					l0.5,7.9l-1.7,0.1l-0.5-9.6L213.7,38.3 M630.3,146l113.2-6.5l-1.1-6.5c-5-28.2-26.8-47.2-53.7-47.2c-1.1,0-2.2,0-3.3,0.1
					c-28.7,1.8-52.2,24.7-54.5,53.4L630.3,146 M489.9,154.2l113.3-6.5l-1.2-6.5c-5-28.3-26.8-47.2-53.7-47.2c-1.1,0-2.2,0-3.3,0.1
					c-28.7,1.8-52.1,24.7-54.5,53.4L489.9,154.2 M215.4,35.2l-1.9,0.1l-42.7,2.4l-3,0.2l0.2,3l0.5,9.6l0.2,3l3-0.2l1.7-0.1l3-0.2
					l-0.2-3l-0.3-4.9l34.8-2l96.7,182.4l2.9,5.5l2.5-5.7l35.7-82.7l46.8,77.8l3.1,5.2l2.2-5.6l22.6-57.1l62.7-3.6l0.4,2.6
					c2.3,14.9,9.9,28.4,21.4,38.2c11.4,9.7,25.8,15,40.6,15c3.2,0,6.4-0.2,9.6-0.7c14.1-2.2,26.6-8.9,36.2-19.2l2.2-2.4l-2.6-2
					l-1.3-1l-2.2-1.7l-1.9,2c-10.3,11-24.9,17.3-40.2,17.3c-12.2,0-23.7-3.9-33.4-11.3c-10.9-8.4-18.3-20.4-20.8-33.9l-0.6-3.2h0.1
					h0.1h0.1l5.7-0.6l126.9-7.2l0.4,2.6c2.5,16.6,11.4,31.2,24.9,41.1c10.9,8,23.7,12.2,37.1,12.2c3.2,0,6.4-0.2,9.6-0.7
					c13.9-2.1,26.7-8.9,36.2-19.1l2.2-2.4l-2.6-2l-1.3-1l-2.1-1.7l-1.9,2c-9.2,9.7-21.5,15.7-34.9,17l0,0h-1.7H692h-0.1
					c-1,0.1-2,0.1-3,0.1c-26.6,0-49.4-19-54.3-45.1L634,151l111.1-6.3l2.8-0.2v-2.8v-0.8v-0.1v-0.1c-1-16.4-7.6-31.4-18.4-42.2
					c-10.9-10.8-25.4-16.7-40.8-16.7c-1.2,0-2.3,0-3.5,0.1c-31.9,2-57.2,27.5-59,59.4l-0.1,2.5l-18.7,1.1L607,142
					c-2.4-15.3-9.3-28.5-19.9-38c-10.6-9.5-24-14.6-38.6-14.6c-1.2,0-2.4,0-3.6,0.1c-32,1.9-57.3,27.4-59,59.4l-0.1,2.5l-65.7,3.7
					l-1.9,0.1l-0.7,1.8l-20.4,50l-46.7-77.2l-3-5l-2.3,5.4l-35,81.5L216.3,36.9L215.4,35.2L215.4,35.2z M633.6,142.8l0.3-3.2
					c2.2-27.2,24.4-49,51.7-50.7c1-0.1,2-0.1,3.1-0.1c25.6,0,46,18,50.8,44.7l0.5,3.2L633.6,142.8L633.6,142.8z M493.2,151l0.3-3.2
					c2.3-27.2,24.5-49,51.7-50.7c1-0.1,2.1-0.1,3.1-0.1c25.6,0,46,18,50.8,44.7l0.6,3.2L493.2,151L493.2,151z"/>
			</g>
			<g>
				<polygon class="st3" points="24.7,270.1 17.6,146.4 141.4,225 133,78 189.6,74.7 189.9,79.4 138,82.4 146.7,233.4 22.8,154.8 
					29.4,270.1 				"/>
				<path class="st3" d="M188.2,76.3l0.1,1.7l-51.9,3l8.6,149.6L21.1,152l6.7,116.6h-1.7l-6.8-119.4l123.8,78.6l-8.5-148.4
					L188.2,76.3 M191,73.1l-3,0.2l-53.6,3.1l-3,0.2l0.2,3l8.2,142.6L20.9,146.7l-4.9-3.1l0.3,5.8l6.8,119.4l0.2,2.8h2.8h1.7H31
					l-0.2-3.2l-6.4-110.8l119,75.5l4.9,3.1l-0.3-5.8l-8.4-146.6l48.9-2.8l3-0.2l-0.2-3l-0.1-1.7L191,73.1L191,73.1z"/>
			</g>
			<g>
				<polygon class="st3" points="17.6,146.4 141.5,225 133.1,78 189.6,74.7 189.9,79.4 138,82.4 146.7,233.4 22.8,154.8 29.4,269.9 
					24.7,270.2 				"/>
				<path class="st3" d="M188.2,76.3l0.1,1.7l-51.9,3l8.6,149.6L21.1,152l6.7,116.5l-1.7,0.1l-6.8-119.4l123.9,78.6l-8.5-148.4
					L188.2,76.3 M191,73.1l-3,0.2l-53.5,3.1l-3,0.2l0.2,3l8.2,142.6l-119-75.5l-4.9-3.1l0.3,5.8l6.8,119.4l0.2,3l3-0.2l1.7-0.1
					l3-0.2l-0.2-3l-6.4-110.7l119,75.5l4.9,3.1l-0.3-5.8l-8.4-146.6l48.9-2.8l3-0.2l-0.2-3l-0.1-1.7L191,73.1L191,73.1z"/>
			</g>
		</g>
	</g>
	<g id="Calque_5_-_copie" class="st0">
		<g id="Layer_2_6_" class="st1">
			<g id="Layer_6_copy_12_6_">
				<g>
					
						<rect x="277.8" y="109.8" transform="matrix(0.9984 -5.709805e-02 5.709805e-02 0.9984 -8.5156 16.3729)" class="st3" width="8.9" height="94.8"/>
					<path class="st6" d="M293.5,207.9l-16.6,1L271,106.5l16.6-1L293.5,207.9z M284.2,200.7l1.1-0.1l-5-86.9l-1.1,0.1L284.2,200.7z"
						/>
				</g>
				<g>
					<path class="st3" d="M621.7,173.8c-17.4,1-32.8-11.1-36-28.3l75.3-4.3l-0.3-4.4c-1.6-24.5-20.3-42.1-43.6-40.8
						c-22.1,1.4-39.7,19-40.9,41.1l-9,0.5c-3.5-22.2-21.3-37.6-43.1-36.4c-22.1,1.3-39.7,19-40.9,41.2L439,145l-13.1,31.9L393,122.5
						l-24.7,57.3L307.2,65.3l-34.6,2l0.8,14.1l8.9-0.5l-0.3-5.2l19.9-1.1l67.3,126.9l25.3-58.9l33.1,55.1l17.4-44l38.6-2.2
						c3.7,23.7,25.9,40,49.6,36.3c11.1-1.7,21.1-7.6,27.9-16.5l-7-5.4c-11.6,15.2-33.3,18.1-48.5,6.5c-6.9-5.2-11.5-12.9-13.1-21.4
						l1.8-0.1v-0.2l82.4-4.7c3.6,23.7,25.8,40,49.6,36.4c11.1-1.7,21-7.6,27.8-16.4l-7-5.4C641.1,168.3,631.8,173.2,621.7,173.8z
						 M617.8,104.7c16.9-1,30.7,10.8,33.7,28l-66.2,3.8C586.7,119.3,600.5,105.8,617.8,104.7z M492.2,142
						c1.4-17.2,15.3-30.8,32.5-31.8c16.9-1,30.7,10.8,33.7,28L492.2,142z"/>
					<path class="st6" d="M369.6,210.4L299.7,78.5l-13.6,0.8l0.3,5.2l-16.6,1l-1.2-21.9l41-2.3L368,170.9l24.5-56.8l32.8,54.2
						l11.1-27l43.4-2.5c2.9-22.5,21.3-40,44.2-41.4c22.4-1.3,41.5,13.8,46.5,36.2l2.3-0.1c2.9-22.4,21.3-39.9,44.2-41.3
						c25.5-1.5,46,17.6,47.7,44.4l0.5,8.3l-74.5,4.3c4.4,12.9,16.9,21.6,30.8,20.8l0,0h0.1c8.9-0.5,17.1-4.9,22.5-11.9l2.4-3.1
						l13.1,10.2l-2.4,3.1c-7.5,9.7-18.2,16.1-30.3,17.9c-12.5,1.9-25-1.1-35.2-8.6c-9.2-6.8-15.6-16.5-18.1-27.5l-76.1,4.4
						c1.9,5.8,5.6,11,10.5,14.8c13.5,10.3,32.8,7.7,43-5.8l2.4-3.1l13.1,10.2l-2.3,3.1c-7.5,9.7-18.2,16.1-30.3,18
						c-24.6,3.8-47.8-12.2-53.3-36l-32.8,1.9l-19.4,49L395.1,151L369.6,210.4z M442.4,149.8l44.6-2.6l0.5,3.5
						c3.3,21.6,23.6,36.4,45.1,33c8.8-1.4,16.8-5.6,22.9-12.1l-0.8-0.7c-13.3,14.2-35.6,16.3-51.4,4.3c-7.7-5.8-12.8-14.3-14.5-23.8
						l-0.8-4.3l2.3-0.1l3.9-0.4l85.9-4.9l0.5,3.5c1.6,10.4,7.2,19.6,15.7,25.9c8.5,6.3,19,8.8,29.4,7.2c8.8-1.4,16.8-5.6,22.9-12
						l-0.9-0.7c-6.7,7.1-15.9,11.4-25.7,12c-0.1,0-0.1,0-0.2,0l0,0c-19.3,1.1-36.5-12.4-40-31.4l-0.8-4.3l75.9-4.3V137
						c-1.4-22.3-18.4-38.3-39.5-37.1c-20.1,1.2-36.1,17.3-37.2,37.5l-0.2,3.5l-16,0.9l-0.5-3.5c-3.2-20.6-19.3-34.2-39.1-33.1
						c-20.1,1.2-36.2,17.3-37.3,37.5l-0.2,3.5l-45.3,2.6l-15,36.8l-33-54.5l-24.9,57.8L305,69.3l-28.3,1.6l0.4,6.3l1.1-0.1l-0.3-5.2
						l26.3-1.5l64.7,122L394,134l33,54.8L442.4,149.8z M488,146.1l0.4-4.5c1.6-19,17.1-34.2,36.1-35.4c18.8-1.1,34.3,11.8,37.8,31.2
						l0.8,4.3L488,146.1z M524.9,114c-13.7,0.8-25.1,10.7-28.1,23.8l56.8-3.3C549.5,121.5,538.2,113.3,524.9,114z M656.1,136.4
						l-75,4.3l0.4-4.5c1.6-19,17.1-34.2,36.1-35.4l0,0c18.8-1.1,34.3,11.8,37.8,31.2L656.1,136.4z M589.9,132.4l56.8-3.2
						c-4-13-15.3-21.3-28.6-20.5C604.3,109.4,592.9,119.3,589.9,132.4z"/>
				</g>
				<polygon class="st3" points="257.4,92.4 248.5,92.9 253.9,187.5 171.9,135.5 177,226 185.9,225.5 181.7,152 263.8,204 
					257.9,101.2 292.2,99.3 291.7,90.4 				"/>
				<g>
					<polygon class="st3" points="257.4,92.4 248.5,92.9 253.9,187.5 171.9,135.5 177,226 185.9,225.5 181.7,152 263.8,204 
						257.9,101.2 292.2,99.3 291.7,90.4 					"/>
					<path class="st6" d="M190,229.2l-16.6,1l-5.8-102l82.1,52l-5.2-91l51-2.9l1,16.6l-34.4,2l6.1,106.5l-82.1-52L190,229.2z
						 M180.7,221.9l1.1-0.1l-4.4-77.2l82.1,52l-5.7-99.1l34.4-2l-0.1-1.1l-35.5,2l5.6,98.3l-82.1-52L180.7,221.9z"/>
				</g>
				<path class="st4" d="M617.6,102.5c-17.3,1.1-31.1,14.7-32.5,31.9l66.2-3.8C648.3,113.3,634.5,101.5,617.6,102.5z"/>
				<path class="st4" d="M524.6,107.8c-17.3,1.1-31.1,14.7-32.5,31.9l66.2-3.8C555.2,118.7,541.4,106.9,524.6,107.8z"/>
			</g>
		</g>
		<g class="st1">
			<g id="Layer_2_7_">
				<g id="Layer_6_copy_12_5_">
					<path class="st2" d="M630.5,81.4C462.3,84.9,295.1,101.1,127,108c4.5,35.4,6.6,71.2,6.1,106.9c106-8.8,207.7-10.2,311.7-20.1
						c47.9-3.3,94.1-8.1,144.9-6.1c13.3-1.3,26.7,0.1,44.4-4.8c-161.3,8.7-322.4,17.9-483.4,27.6c1.9-8.1,1.4-16.6-1.4-24.5
						c160.9-11.7,322.3-14.3,483.2-29.9c-161.4,6.8-322.1,20.4-483.2,29.9c1.8-8.9,1.3-18.1-1.5-26.7l483.4-27.7
						c-161.6,2.6-322.1,20.6-483.3,27.6c1.8-8.9,1.2-18.1-1.6-26.7c161.4-4.5,321.9-20.4,483.3-27.6
						c-161.2,9.5-322.3,18.7-483.3,27.6c1.9-8.1,1.4-16.6-1.4-24.5C308.4,102.6,466.7,86.9,630.5,81.4L630.5,81.4z M149.8,211.5
						c-2.2,0-4.4,0.1-6.6,0.4c-2.6-7.9-3.1-16.3-1.4-24.4l6.6-0.4C151.1,195.8,149.3,202.6,149.8,211.5z M148.4,187.1
						c-2.2,0-4.4,0.1-6.6,0.4c-2.7-8.7-3.2-17.8-1.5-26.7c2.2,0,4.4-0.1,6.6-0.4C149.6,169.1,147.9,178.1,148.4,187.1z M146.9,160.5
						c-2.2,0-4.4,0.1-6.6,0.4c-2.7-8.7-3.2-17.8-1.5-26.7c2.2,0,4.4-0.1,6.6-0.4C148.1,142.5,146.4,151.5,146.9,160.5z M145.4,133.9
						c-2.2,0-4.4,0.1-6.6,0.4c-2.6-7.9-3.1-16.3-1.4-24.4l6.6-0.4C146.7,118.3,144.9,125.1,145.4,133.9z"/>
					<path class="st3" d="M152.7,146.8c2.3,2.1,2.5,4.3,4.7,4.2c2.3-0.4,4.1-2.3,4.2-4.7c-0.3-2.3-2.3-4.1-4.7-4.2
						C154.7,142.2,154.8,144.5,152.7,146.8z"/>
					<path class="st3" d="M154.3,173.4c2.3,2.1,2.5,4.3,4.7,4.2c2.4-0.1,4.3-2.2,4.2-4.7c-0.1-2.4-2.2-4.3-4.7-4.2
						C156.2,168.8,156.4,171,154.3,173.4z"/>
					<g>
						
							<rect x="280.8" y="109.2" transform="matrix(0.9984 -5.709805e-02 5.709805e-02 0.9984 -8.4765 16.5432)" class="st2" width="8.9" height="94.8"/>
						<path class="st3" d="M296.5,207.3l-16.6,1L274,105.9l16.6-1L296.5,207.3z M287.2,200.1l1.1-0.1l-5-86.9l-1.1,0.1L287.2,200.1z
							"/>
					</g>
					<g>
						<path class="st2" d="M624.7,173.2c-17.4,1-32.8-11.1-36-28.3l75.3-4.3l-0.3-4.4c-1.6-24.5-20.3-42.1-43.6-40.8
							c-22.1,1.4-39.7,19-40.9,41.1l-9,0.5c-3.5-22.2-21.3-37.6-43.1-36.4c-22.1,1.3-39.7,19-40.9,41.2l-44.3,2.5l-13.1,31.9
							L396,121.9l-24.7,57.3L310.2,64.7l-34.6,2l0.8,14.1l8.9-0.5L285,75l19.9-1.1l67.3,126.9l25.3-58.9l33.1,55.1l17.4-44l38.6-2.2
							c3.7,23.7,25.9,40,49.6,36.3c11.1-1.7,21.1-7.6,27.9-16.5l-7-5.4c-11.6,15.2-33.3,18.1-48.5,6.5c-6.9-5.2-11.5-12.9-13.1-21.4
							l1.8-0.1V150l82.4-4.7c3.6,23.7,25.8,40,49.6,36.4c11.1-1.7,21-7.6,27.8-16.4l-7-5.4C644.1,167.7,634.8,172.6,624.7,173.2z
							 M620.8,104.1c16.9-1,30.7,10.8,33.7,28l-66.2,3.8C589.7,118.7,603.5,105.2,620.8,104.1z M495.2,141.4
							c1.4-17.2,15.3-30.8,32.5-31.8c16.9-1,30.7,10.8,33.7,28L495.2,141.4z"/>
						<path class="st3" d="M372.6,209.8L302.7,77.9l-13.6,0.8l0.3,5.2l-16.6,1L271.5,63l41-2.3L371,170.3l24.5-56.8l32.8,54.2
							l11.1-27l43.4-2.5c2.9-22.5,21.3-40,44.2-41.4c22.4-1.3,41.5,13.8,46.5,36.2l2.3-0.1c2.9-22.4,21.3-39.9,44.2-41.3
							c25.5-1.5,46,17.6,47.7,44.4l0.5,8.3l-74.5,4.3c4.4,12.9,16.9,21.6,30.8,20.8l0,0h0.1c8.9-0.5,17.1-4.9,22.5-11.9l2.4-3.1
							l13.1,10.2l-2.4,3.1c-7.5,9.7-18.2,16.1-30.3,17.9c-12.5,1.9-25-1.1-35.2-8.6c-9.2-6.8-15.6-16.5-18.1-27.5l-76.1,4.4
							c1.9,5.9,5.6,11,10.5,14.8c13.5,10.3,32.8,7.7,43-5.8l2.4-3.1l13.1,10.2l-2.3,3.1c-7.5,9.7-18.2,16.1-30.3,18
							c-24.6,3.8-47.8-12.2-53.3-36l-32.8,1.9l-19.4,49l-33.3-55.3L372.6,209.8z M445.4,149.2l44.6-2.6l0.5,3.5
							c3.3,21.6,23.6,36.4,45.1,33c8.8-1.4,16.8-5.6,22.9-12.1l-0.8-0.7c-13.3,14.2-35.6,16.3-51.4,4.3
							c-7.7-5.8-12.8-14.3-14.5-23.8l-0.8-4.3l2.3-0.1l3.9-0.4l85.9-4.9l0.5,3.5c1.6,10.4,7.2,19.6,15.7,25.9
							c8.5,6.3,19,8.8,29.4,7.2c8.8-1.4,16.8-5.6,22.9-12l-0.9-0.7c-6.7,7.1-15.9,11.4-25.7,12c-0.1,0-0.1,0-0.2,0l0,0
							c-19.3,1.1-36.5-12.4-40-31.4l-0.8-4.3l75.9-4.3v-0.6c-1.4-22.3-18.4-38.3-39.5-37.1c-20.1,1.2-36.1,17.3-37.2,37.5l-0.2,3.5
							l-16,0.9l-0.5-3.5c-3.2-20.6-19.3-34.2-39.1-33.1c-20.1,1.2-36.2,17.3-37.3,37.5l-0.2,3.5l-45.3,2.6l-15,36.8l-33-54.5
							l-24.9,57.8L308,68.7l-28.3,1.6l0.4,6.3l1.1-0.1l-0.3-5.2l26.3-1.5l64.7,122l25.1-58.4l33,54.8L445.4,149.2z M491,145.5
							l0.4-4.5c1.6-19,17.1-34.2,36.1-35.4c18.8-1.1,34.3,11.8,37.8,31.2l0.8,4.3L491,145.5z M527.9,113.4
							c-13.7,0.8-25.1,10.7-28.1,23.8l56.8-3.3C552.5,120.9,541.2,112.7,527.9,113.4z M659.1,135.8l-75,4.3l0.4-4.5
							c1.6-19,17.1-34.2,36.1-35.4l0,0c18.8-1.1,34.3,11.8,37.8,31.2L659.1,135.8z M592.9,131.8l56.8-3.2c-4-13-15.3-21.3-28.6-20.5
							C607.3,108.8,595.9,118.7,592.9,131.8z"/>
					</g>
					<polygon class="st3" points="260.4,91.8 251.5,92.3 256.9,186.9 174.9,134.9 180,225.4 188.9,224.9 184.7,151.4 266.8,203.4 
						260.9,100.6 295.2,98.7 294.7,89.8 					"/>
					<g>
						<polygon class="st2" points="260.4,91.8 251.5,92.3 256.9,186.9 174.9,134.9 180,225.4 188.9,224.9 184.7,151.4 266.8,203.4 
							260.9,100.6 295.2,98.7 294.7,89.8 						"/>
						<path class="st3" d="M193,228.6l-16.6,1l-5.8-102l82.1,52l-5.2-91l51-2.9l1,16.6l-34.4,2l6.1,106.5l-82.1-52L193,228.6z
							 M183.7,221.3l1.1-0.1l-4.4-77.2l82.1,52l-5.7-99l34.4-2l-0.1-1.1l-35.5,2l5.6,98.3l-82.1-52L183.7,221.3z"/>
					</g>
					<path class="st4" d="M620.6,101.9c-17.3,1.1-31.1,14.7-32.5,31.9l66.2-3.8C651.3,112.7,637.5,100.9,620.6,101.9z"/>
					<path class="st4" d="M527.6,107.2c-17.3,1.1-31.1,14.7-32.5,31.9l66.2-3.8C558.2,118.1,544.4,106.3,527.6,107.2z"/>
				</g>
			</g>
		</g>
		<g class="st1">
			<path class="st3" d="M487.4,210.8h3.7c2.1,0,3.6,0.1,4.3,0.3c1.1,0.3,1.9,0.8,2.6,1.6s1,1.8,1,3.1c0,1.2-0.3,2.3-1,3.1
				s-1.6,1.4-2.7,1.6c-0.8,0.2-2.4,0.3-4.7,0.3h-1.3v8.7h-1.9V210.8z M489.2,212.6v6.3h3.2c1.3,0,2.2-0.1,2.8-0.3s1.1-0.6,1.4-1.1
				s0.5-1.1,0.5-1.7c0-0.6-0.2-1.2-0.5-1.7s-0.8-0.9-1.3-1.1c-0.6-0.2-1.5-0.3-2.7-0.3L489.2,212.6L489.2,212.6z"/>
			<path class="st3" d="M502.9,210.8h3.7c2.1,0,3.5,0.1,4.2,0.3c1.1,0.3,2,0.8,2.7,1.6s1,1.9,1,3.1c0,1-0.2,1.9-0.7,2.7
				s-1.2,1.4-2,1.7c-0.9,0.4-2.1,0.6-3.7,0.6l6.7,8.7h-2.3l-6.7-8.7h-1.1v8.7h-1.9v-18.7L502.9,210.8L502.9,210.8z M504.7,212.6v6.3
				h3.2c1.2,0,2.2-0.1,2.8-0.4c0.6-0.2,1.1-0.6,1.4-1.1c0.3-0.5,0.5-1.1,0.5-1.7c0-0.6-0.2-1.2-0.5-1.7s-0.8-0.9-1.3-1.1
				s-1.5-0.3-2.7-0.3H504.7z"/>
			<path class="st3" d="M527.4,210.3c2.8,0,5.2,0.9,7.1,2.8s2.9,4.2,2.9,7c0,2.7-1,5.1-2.9,7s-4.2,2.9-7,2.9s-5.1-0.9-7-2.8
				s-2.9-4.2-2.9-6.9c0-1.8,0.4-3.5,1.3-5s2.1-2.7,3.6-3.6C524.1,210.7,525.7,210.3,527.4,210.3z M527.5,212.1
				c-1.4,0-2.7,0.4-3.9,1.1c-1.2,0.7-2.2,1.7-2.9,2.9s-1,2.6-1,4.1c0,2.2,0.8,4.1,2.3,5.6s3.4,2.3,5.6,2.3c1.4,0,2.8-0.4,4-1.1
				s2.2-1.7,2.9-2.9s1-2.6,1-4.1s-0.3-2.8-1-4s-1.7-2.2-2.9-2.9C530.3,212.5,528.9,212.1,527.5,212.1z"/>
			<path class="st3" d="M541.1,229.5v-18.7h3.9c2.8,0,4.8,0.2,6.1,0.7c1.8,0.6,3.2,1.7,4.2,3.3s1.5,3.4,1.5,5.6
				c0,1.9-0.4,3.5-1.2,4.9s-1.9,2.5-3.1,3.1c-1.3,0.7-3.1,1-5.4,1L541.1,229.5L541.1,229.5z M542.9,227.7h2.2c2.6,0,4.4-0.2,5.4-0.5
				c1.4-0.5,2.5-1.3,3.3-2.5s1.2-2.6,1.2-4.4c0-1.8-0.4-3.3-1.3-4.6c-0.9-1.3-2.1-2.2-3.6-2.6c-1.2-0.4-3.1-0.5-5.8-0.5H543
				L542.9,227.7L542.9,227.7z"/>
			<path class="st3" d="M560.6,210.8h1.9v11.3c0,1.3,0,2.2,0.1,2.5c0.1,0.7,0.3,1.4,0.6,1.8c0.3,0.5,0.9,0.9,1.6,1.2
				c0.7,0.3,1.4,0.5,2.1,0.5c0.6,0,1.2-0.1,1.8-0.4s1-0.6,1.4-1.1s0.7-1,0.8-1.7c0.1-0.5,0.2-1.4,0.2-2.9v-11.3h1.9V222
				c0,1.7-0.2,3-0.5,4s-1,1.9-2,2.7s-2.2,1.1-3.5,1.1c-1.5,0-2.8-0.4-3.9-1.1s-1.8-1.7-2.2-2.9c-0.2-0.7-0.3-2-0.3-3.9L560.6,210.8
				L560.6,210.8z"/>
			<path class="st3" d="M594.9,214.2l-1.5,1.1c-0.8-1.1-1.8-1.9-2.9-2.4c-1.1-0.5-2.4-0.8-3.8-0.8c-1.5,0-2.9,0.4-4.1,1.1
				c-1.3,0.7-2.3,1.7-3,2.9s-1,2.6-1,4.1c0,2.3,0.8,4.2,2.3,5.7c1.6,1.5,3.5,2.3,5.9,2.3c2.6,0,4.8-1,6.6-3.1l1.5,1.1
				c-0.9,1.2-2.1,2.1-3.5,2.7c-1.4,0.6-2.9,1-4.7,1c-3.3,0-5.8-1.1-7.7-3.3c-1.6-1.8-2.4-4.1-2.4-6.7c0-2.7,1-5,2.9-6.9
				s4.3-2.8,7.2-2.8c1.7,0,3.3,0.3,4.7,1C592.9,212,594,213,594.9,214.2z"/>
			<path class="st3" d="M596.8,212.6v-1.8H607v1.8h-4.2v16.8H601v-16.8H596.8z"/>
			<path class="st3" d="M609.5,210.8h1.9v18.7h-1.9V210.8z"/>
			<path class="st3" d="M624.5,210.3c2.8,0,5.2,0.9,7.1,2.8s2.9,4.2,2.9,7c0,2.7-1,5.1-2.9,7s-4.2,2.9-7,2.9s-5.1-0.9-7-2.8
				s-2.9-4.2-2.9-6.9c0-1.8,0.4-3.5,1.3-5s2.1-2.7,3.6-3.6C621.1,210.7,622.7,210.3,624.5,210.3z M624.6,212.1
				c-1.4,0-2.7,0.4-3.9,1.1c-1.2,0.7-2.2,1.7-2.9,2.9s-1,2.6-1,4.1c0,2.2,0.8,4.1,2.3,5.6s3.4,2.3,5.6,2.3c1.4,0,2.8-0.4,4-1.1
				s2.2-1.7,2.9-2.9s1-2.6,1-4.1s-0.3-2.8-1-4s-1.7-2.2-2.9-2.9C627.3,212.5,626,212.1,624.6,212.1z"/>
			<path class="st3" d="M638.2,229.5v-18.7h0.4l12.4,14.3v-14.3h1.8v18.7h-0.4l-12.3-14.1v14.1H638.2z"/>
			<path class="st3" d="M655.5,226l1.6-1c1.1,2.1,2.4,3.1,3.9,3.1c0.6,0,1.2-0.1,1.8-0.4c0.5-0.3,1-0.7,1.3-1.2s0.4-1,0.4-1.6
				s-0.2-1.2-0.6-1.8c-0.6-0.8-1.7-1.8-3.2-3c-1.6-1.2-2.5-2-2.9-2.6c-0.7-0.9-1-1.8-1-2.9c0-0.8,0.2-1.6,0.6-2.2s0.9-1.2,1.6-1.6
				c0.7-0.4,1.5-0.6,2.3-0.6c0.9,0,1.7,0.2,2.5,0.7c0.8,0.4,1.6,1.2,2.4,2.4l-1.5,1.2c-0.7-0.9-1.3-1.5-1.8-1.8s-1-0.4-1.6-0.4
				c-0.8,0-1.4,0.2-1.8,0.7c-0.5,0.5-0.7,1-0.7,1.7c0,0.4,0.1,0.8,0.3,1.2s0.5,0.8,0.9,1.2c0.2,0.2,1,0.9,2.4,1.9
				c1.6,1.2,2.7,2.3,3.3,3.2s0.9,1.9,0.9,2.8c0,1.4-0.5,2.5-1.5,3.5s-2.3,1.5-3.8,1.5c-1.1,0-2.2-0.3-3.1-0.9
				C657.1,228.4,656.3,227.4,655.5,226z"/>
		</g>
	</g>
	<g id="rose" class="st0">
		<g id="Layer_2_8_" class="st1">
			<g id="Layer_6_copy_12_8_">
				<g>
					
						<rect x="277.8" y="109.8" transform="matrix(0.9984 -5.709805e-02 5.709805e-02 0.9984 -8.5156 16.3729)" class="st8" width="8.9" height="94.8"/>
					<path class="st8" d="M293.5,207.9l-16.6,1L271,106.5l16.6-1L293.5,207.9z M284.2,200.7l1.1-0.1l-5-86.9l-1.1,0.1L284.2,200.7z"
						/>
				</g>
				<g>
					<path class="st8" d="M621.7,173.8c-17.4,1-32.8-11.1-36-28.3l75.3-4.3l-0.3-4.4c-1.6-24.5-20.3-42.1-43.6-40.8
						c-22.1,1.4-39.7,19-40.9,41.1l-9,0.5c-3.5-22.2-21.3-37.6-43.1-36.4c-22.1,1.3-39.7,19-40.9,41.2L439,145l-13.1,31.9L393,122.5
						l-24.7,57.3L307.2,65.3l-34.6,2l0.8,14.1l8.9-0.5l-0.3-5.2l19.9-1.1l67.3,126.9l25.3-58.9l33.1,55.1l17.4-44l38.6-2.2
						c3.7,23.7,25.9,40,49.6,36.3c11.1-1.7,21.1-7.6,27.9-16.5l-7-5.4c-11.6,15.2-33.3,18.1-48.5,6.5c-6.9-5.2-11.5-12.9-13.1-21.4
						l1.8-0.1v-0.2l82.4-4.7c3.6,23.7,25.8,40,49.6,36.4c11.1-1.7,21-7.6,27.8-16.4l-7-5.4C641.1,168.3,631.8,173.2,621.7,173.8z
						 M617.8,104.7c16.9-1,30.7,10.8,33.7,28l-66.2,3.8C586.7,119.3,600.5,105.8,617.8,104.7z M492.2,142
						c1.4-17.2,15.3-30.8,32.5-31.8c16.9-1,30.7,10.8,33.7,28L492.2,142z"/>
					<path class="st8" d="M369.6,210.4L299.7,78.5l-13.6,0.8l0.3,5.2l-16.6,1l-1.2-21.9l41-2.3L368,170.9l24.5-56.8l32.8,54.2
						l11.1-27l43.4-2.5c2.9-22.5,21.3-40,44.2-41.4c22.4-1.3,41.5,13.8,46.5,36.2l2.3-0.1c2.9-22.4,21.3-39.9,44.2-41.3
						c25.5-1.5,46,17.6,47.7,44.4l0.5,8.3l-74.5,4.3c4.4,12.9,16.9,21.6,30.8,20.8l0,0h0.1c8.9-0.5,17.1-4.9,22.5-11.9l2.4-3.1
						l13.1,10.2l-2.4,3.1c-7.5,9.7-18.2,16.1-30.3,17.9c-12.5,1.9-25-1.1-35.2-8.6c-9.2-6.8-15.6-16.5-18.1-27.5l-76.1,4.4
						c1.9,5.8,5.6,11,10.5,14.8c13.5,10.3,32.8,7.7,43-5.8l2.4-3.1l13.1,10.2l-2.3,3.1c-7.5,9.7-18.2,16.1-30.3,18
						c-24.6,3.8-47.8-12.2-53.3-36l-32.8,1.9l-19.4,49L395.1,151L369.6,210.4z M442.4,149.8l44.6-2.6l0.5,3.5
						c3.3,21.6,23.6,36.4,45.1,33c8.8-1.4,16.8-5.6,22.9-12.1l-0.8-0.7c-13.3,14.2-35.6,16.3-51.4,4.3c-7.7-5.8-12.8-14.3-14.5-23.8
						l-0.8-4.3l2.3-0.1l3.9-0.4l85.9-4.9l0.5,3.5c1.6,10.4,7.2,19.6,15.7,25.9c8.5,6.3,19,8.8,29.4,7.2c8.8-1.4,16.8-5.6,22.9-12
						l-0.9-0.7c-6.7,7.1-15.9,11.4-25.7,12c-0.1,0-0.1,0-0.2,0l0,0c-19.3,1.1-36.5-12.4-40-31.4l-0.8-4.3l75.9-4.3V137
						c-1.4-22.3-18.4-38.3-39.5-37.1c-20.1,1.2-36.1,17.3-37.2,37.5l-0.2,3.5l-16,0.9l-0.5-3.5c-3.2-20.6-19.3-34.2-39.1-33.1
						c-20.1,1.2-36.2,17.3-37.3,37.5l-0.2,3.5l-45.3,2.6l-15,36.8l-33-54.5l-24.9,57.8L305,69.3l-28.3,1.6l0.4,6.3l1.1-0.1l-0.3-5.2
						l26.3-1.5l64.7,122L394,134l33,54.8L442.4,149.8z M488,146.1l0.4-4.5c1.6-19,17.1-34.2,36.1-35.4c18.8-1.1,34.3,11.8,37.8,31.2
						l0.8,4.3L488,146.1z M524.9,114c-13.7,0.8-25.1,10.7-28.1,23.8l56.8-3.3C549.5,121.5,538.2,113.3,524.9,114z M656.1,136.4
						l-75,4.3l0.4-4.5c1.6-19,17.1-34.2,36.1-35.4l0,0c18.8-1.1,34.3,11.8,37.8,31.2L656.1,136.4z M589.9,132.4l56.8-3.2
						c-4-13-15.3-21.3-28.6-20.5C604.3,109.4,592.9,119.3,589.9,132.4z"/>
				</g>
				<polygon class="st8" points="257.4,92.4 248.5,92.9 253.9,187.5 171.9,135.5 177,226 185.9,225.5 181.7,152 263.8,204 
					257.9,101.2 292.2,99.3 291.7,90.4 				"/>
				<g>
					<polygon class="st8" points="257.4,92.4 248.5,92.9 253.9,187.5 171.9,135.5 177,226 185.9,225.5 181.7,152 263.8,204 
						257.9,101.2 292.2,99.3 291.7,90.4 					"/>
					<path class="st8" d="M190,229.2l-16.6,1l-5.8-102l82.1,52l-5.2-91l51-2.9l1,16.6l-34.4,2l6.1,106.5l-82.1-52L190,229.2z
						 M180.7,221.9l1.1-0.1l-4.4-77.2l82.1,52l-5.7-99.1l34.4-2l-0.1-1.1l-35.5,2l5.6,98.3l-82.1-52L180.7,221.9z"/>
				</g>
			</g>
		</g>
		<g class="st1">
			<g id="Layer_2_9_">
				<g id="Layer_6_copy_12_7_">
					<path class="st8" d="M630.5,81.4C462.3,84.9,295.1,101.1,127,108c4.5,35.4,6.6,71.2,6.1,106.9c106-8.8,207.7-10.2,311.7-20.1
						c47.9-3.3,94.1-8.1,144.9-6.1c13.3-1.3,26.7,0.1,44.4-4.8c-161.3,8.7-322.4,17.9-483.4,27.6c1.9-8.1,1.4-16.6-1.4-24.5
						c160.9-11.7,322.3-14.3,483.2-29.9c-161.4,6.8-322.1,20.4-483.2,29.9c1.8-8.9,1.3-18.1-1.5-26.7l483.4-27.7
						c-161.6,2.6-322.1,20.6-483.3,27.6c1.8-8.9,1.2-18.1-1.6-26.7c161.4-4.5,321.9-20.4,483.3-27.6
						c-161.2,9.5-322.3,18.7-483.3,27.6c1.9-8.1,1.4-16.6-1.4-24.5C308.4,102.6,466.7,86.9,630.5,81.4L630.5,81.4z M149.8,211.5
						c-2.2,0-4.4,0.1-6.6,0.4c-2.6-7.9-3.1-16.3-1.4-24.4l6.6-0.4C151.1,195.8,149.3,202.6,149.8,211.5z M148.4,187.1
						c-2.2,0-4.4,0.1-6.6,0.4c-2.7-8.7-3.2-17.8-1.5-26.7c2.2,0,4.4-0.1,6.6-0.4C149.6,169.1,147.9,178.1,148.4,187.1z M146.9,160.5
						c-2.2,0-4.4,0.1-6.6,0.4c-2.7-8.7-3.2-17.8-1.5-26.7c2.2,0,4.4-0.1,6.6-0.4C148.1,142.5,146.4,151.5,146.9,160.5z M145.4,133.9
						c-2.2,0-4.4,0.1-6.6,0.4c-2.6-7.9-3.1-16.3-1.4-24.4l6.6-0.4C146.7,118.3,144.9,125.1,145.4,133.9z"/>
					<path class="st8" d="M152.7,146.8c2.3,2.1,2.5,4.3,4.7,4.2c2.3-0.4,4.1-2.3,4.2-4.7c-0.3-2.3-2.3-4.1-4.7-4.2
						C154.7,142.2,154.8,144.5,152.7,146.8z"/>
					<path class="st8" d="M154.3,173.4c2.3,2.1,2.5,4.3,4.7,4.2c2.4-0.1,4.3-2.2,4.2-4.7c-0.1-2.4-2.2-4.3-4.7-4.2
						C156.2,168.8,156.4,171,154.3,173.4z"/>
					<polygon class="st3" points="260.4,91.8 251.5,92.3 256.9,186.9 174.9,134.9 180,225.4 188.9,224.9 184.7,151.4 266.8,203.4 
						260.9,100.6 295.2,98.7 294.7,89.8 					"/>
					<g>
						<path class="st4" d="M527.9,113.4c-13.7,0.8-25.1,10.7-28.1,23.8l56.8-3.3C552.5,120.9,541.2,112.7,527.9,113.4z"/>
						<path class="st4" d="M621,108c-13.7,0.8-25.1,10.7-28.1,23.8l56.8-3.2C645.6,115.5,634.3,107.2,621,108z"/>
						<g>
							
								<rect x="284.7" y="113.1" transform="matrix(0.9984 -5.709852e-02 5.709852e-02 0.9984 -8.4766 16.5433)" class="st9" width="1.1" height="87"/>
							<path class="st9" d="M625.1,177.1c-0.1,0-0.1,0-0.2,0c-19.3,1.1-36.5-12.4-40-31.4l-0.8-4.3l75.9-4.3v-0.6
								c-1.4-22.3-18.4-38.3-39.5-37.1c-20.1,1.2-36.1,17.3-37.2,37.5l-0.2,3.5l-16,0.9l-0.5-3.5c-3.2-20.6-19.3-34.2-39.1-33.1
								c-20.1,1.2-36.2,17.3-37.3,37.5l-0.2,3.5l-45.3,2.6l-15,36.8l-33-54.5l-24.9,57.8L308,68.7l-28.3,1.6l0.4,6.3l1.1-0.1
								l-0.3-5.2l26.3-1.5l64.7,122l25.1-58.4l33,54.8l15.5-39l44.6-2.6l0.5,3.5c3.3,21.6,23.6,36.4,45.1,33
								c8.8-1.4,16.8-5.6,22.9-12.1l-0.8-0.7c-13.3,14.2-35.6,16.3-51.4,4.3c-7.7-5.8-12.8-14.3-14.5-23.8l-0.8-4.3l2.3-0.1l3.9-0.4
								l85.9-4.9l0.5,3.5c1.6,10.4,7.2,19.6,15.7,25.9c8.5,6.3,19,8.8,29.4,7.2c8.8-1.4,16.8-5.6,22.9-12l-0.9-0.7
								C644.1,172.2,634.9,176.5,625.1,177.1z M491,145.5l0.4-4.5c1.6-19,17.1-34.2,36.1-35.4c18.8-1.1,34.3,11.8,37.8,31.2l0.8,4.3
								L491,145.5z M584.4,135.6c1.6-19,17.1-34.2,36.1-35.4l0,0c18.8-1.1,34.3,11.8,37.8,31.2l0.8,4.3l-75,4.3L584.4,135.6z"/>
							<polygon class="st9" points="291.1,95 291.1,93.9 255.6,95.9 261.2,194.3 179.2,142.2 183.7,221.3 184.8,221.3 180.4,144.1 
								262.4,196.1 256.8,97 							"/>
						</g>
						<g>
							<path class="st10" d="M274,105.9l5.9,102.4l16.6-1L290.6,105L274,105.9z M287.2,200.1l-5-86.9l1.1-0.1l5,86.9L287.2,200.1z"
								/>
							<path class="st10" d="M647.2,157.4c-5.4,7.1-13.6,11.4-22.5,11.9h-0.1l0,0c-13.9,0.8-26.4-7.9-30.8-20.8l74.5-4.3l-0.5-8.3
								c-1.7-26.8-22.2-45.8-47.7-44.4c-22.9,1.4-41.3,18.9-44.2,41.3l-2.3,0.1c-5.1-22.4-24.1-37.4-46.5-36.2
								c-22.9,1.4-41.4,18.9-44.2,41.4l-43.4,2.5l-11.1,27l-32.8-54.2L371,170.3L312.5,60.7l-41,2.3l1.2,21.9l16.6-1l-0.3-5.2
								l13.6-0.8l69.9,131.9l25.5-59.4l33.3,55.3l19.4-49l32.8-1.9c5.5,23.9,28.7,39.9,53.3,36c12.1-1.9,22.9-8.3,30.3-18l2.3-3.1
								l-13.1-10.2l-2.4,3.1c-10.3,13.5-29.6,16-43,5.8c-5-3.8-8.6-8.9-10.5-14.8l76.1-4.4c2.5,11.1,8.9,20.7,18.1,27.5
								c10.2,7.5,22.7,10.5,35.2,8.6c12.1-1.9,22.9-8.2,30.3-17.9l2.4-3.1l-13.1-10.2L647.2,157.4z M651.7,165.7
								c-6,6.4-14,10.7-22.9,12c-10.5,1.6-20.9-1-29.4-7.2c-8.5-6.3-14.1-15.5-15.7-25.9l-0.5-3.5l-85.9,4.9l-3.9,0.4l-2.3,0.1
								l0.8,4.3c1.7,9.5,6.9,17.9,14.5,23.8c15.8,12.1,38.1,10,51.4-4.3l0.8,0.7c-6,6.5-14,10.7-22.9,12.1
								c-21.5,3.3-41.8-11.5-45.1-33l-0.5-3.5l-44.6,2.6l-15.5,39l-33-54.8l-25.1,58.4l-64.7-122l-26.3,1.5l0.3,5.2l-1.1,0.1
								l-0.4-6.3l28.3-1.6l63.7,119.5l24.9-57.8l33,54.5l15-36.8l45.3-2.6l0.2-3.5c1.1-20.2,17.1-36.3,37.3-37.5
								c19.8-1.1,35.8,12.5,39.1,33.1l0.5,3.5l16-0.9l0.2-3.5c1.1-20.1,17.1-36.2,37.2-37.5c21.1-1.2,38.1,14.8,39.5,37.1v0.6
								l-75.9,4.3l0.8,4.3c3.5,19,20.7,32.5,40,31.4c0.1,0,0.1,0,0.2,0c9.8-0.6,19-4.9,25.7-12L651.7,165.7z"/>
							<path class="st10" d="M658.3,131.5c-3.4-19.5-19-32.3-37.8-31.2l0,0c-19,1.2-34.6,16.4-36.1,35.4l-0.4,4.5l75-4.3
								L658.3,131.5z M592.9,131.8c3.1-13,14.5-23,28.1-23.8c13.3-0.8,24.6,7.5,28.6,20.5L592.9,131.8z"/>
							<path class="st10" d="M527.5,105.7c-19,1.2-34.6,16.4-36.1,35.4l-0.4,4.5l75-4.3l-0.8-4.3
								C561.8,117.4,546.3,104.6,527.5,105.7z M499.8,137.2c3.1-13,14.5-22.9,28.1-23.8c13.3-0.8,24.6,7.5,28.6,20.5L499.8,137.2z"
								/>
							<path class="st10" d="M247.4,88.6l5.2,91l-82.1-52l5.8,102l16.6-1l-4-69.9l82.1,52l-6-106.4l34.4-2l-1-16.6L247.4,88.6z
								 M180.4,144.1l4.4,77.2l-1.1,0.1l-4.5-79.1l82.1,52L255.7,96l35.5-2l0.1,1.1l-34.4,2l5.7,99.1L180.4,144.1z"/>
						</g>
					</g>
					<path class="st4" d="M620.6,101.9c-17.3,1.1-31.1,14.7-32.5,31.9l66.2-3.8C651.3,112.7,637.5,100.9,620.6,101.9z"/>
					<path class="st4" d="M527.6,107.2c-17.3,1.1-31.1,14.7-32.5,31.9l66.2-3.8C558.2,118.1,544.4,106.3,527.6,107.2z"/>
				</g>
			</g>
		</g>
	</g>
	<g id="rose_-_copie" class="st0">
		<g id="Layer_2_10_" class="st1">
			<g id="Layer_6_copy_12_10_">
				<g>
					
						<rect x="277.8" y="109.8" transform="matrix(0.9984 -5.709805e-02 5.709805e-02 0.9984 -8.5156 16.3729)" class="st8" width="8.9" height="94.8"/>
					<path class="st8" d="M293.5,207.9l-16.6,1L271,106.5l16.6-1L293.5,207.9z M284.2,200.7l1.1-0.1l-5-86.9l-1.1,0.1L284.2,200.7z"
						/>
				</g>
				<g>
					<path class="st8" d="M621.7,173.8c-17.4,1-32.8-11.1-36-28.3l75.3-4.3l-0.3-4.4c-1.6-24.5-20.3-42.1-43.6-40.8
						c-22.1,1.4-39.7,19-40.9,41.1l-9,0.5c-3.5-22.2-21.3-37.6-43.1-36.4c-22.1,1.3-39.7,19-40.9,41.2L439,145l-13.1,31.9L393,122.5
						l-24.7,57.3L307.2,65.3l-34.6,2l0.8,14.1l8.9-0.5l-0.3-5.2l19.9-1.1l67.3,126.9l25.3-58.9l33.1,55.1l17.4-44l38.6-2.2
						c3.7,23.7,25.9,40,49.6,36.3c11.1-1.7,21.1-7.6,27.9-16.5l-7-5.4c-11.6,15.2-33.3,18.1-48.5,6.5c-6.9-5.2-11.5-12.9-13.1-21.4
						l1.8-0.1v-0.2l82.4-4.7c3.6,23.7,25.8,40,49.6,36.4c11.1-1.7,21-7.6,27.8-16.4l-7-5.4C641.1,168.3,631.8,173.2,621.7,173.8z
						 M617.8,104.7c16.9-1,30.7,10.8,33.7,28l-66.2,3.8C586.7,119.3,600.5,105.8,617.8,104.7z M492.2,142
						c1.4-17.2,15.3-30.8,32.5-31.8c16.9-1,30.7,10.8,33.7,28L492.2,142z"/>
					<path class="st8" d="M369.6,210.4L299.7,78.5l-13.6,0.8l0.3,5.2l-16.6,1l-1.2-21.9l41-2.3L368,170.9l24.5-56.8l32.8,54.2
						l11.1-27l43.4-2.5c2.9-22.5,21.3-40,44.2-41.4c22.4-1.3,41.5,13.8,46.5,36.2l2.3-0.1c2.9-22.4,21.3-39.9,44.2-41.3
						c25.5-1.5,46,17.6,47.7,44.4l0.5,8.3l-74.5,4.3c4.4,12.9,16.9,21.6,30.8,20.8l0,0h0.1c8.9-0.5,17.1-4.9,22.5-11.9l2.4-3.1
						l13.1,10.2l-2.4,3.1c-7.5,9.7-18.2,16.1-30.3,17.9c-12.5,1.9-25-1.1-35.2-8.6c-9.2-6.8-15.6-16.5-18.1-27.5l-76.1,4.4
						c1.9,5.8,5.6,11,10.5,14.8c13.5,10.3,32.8,7.7,43-5.8l2.4-3.1l13.1,10.2l-2.3,3.1c-7.5,9.7-18.2,16.1-30.3,18
						c-24.6,3.8-47.8-12.2-53.3-36l-32.8,1.9l-19.4,49L395.1,151L369.6,210.4z M442.4,149.8l44.6-2.6l0.5,3.5
						c3.3,21.6,23.6,36.4,45.1,33c8.8-1.4,16.8-5.6,22.9-12.1l-0.8-0.7c-13.3,14.2-35.6,16.3-51.4,4.3c-7.7-5.8-12.8-14.3-14.5-23.8
						l-0.8-4.3l2.3-0.1l3.9-0.4l85.9-4.9l0.5,3.5c1.6,10.4,7.2,19.6,15.7,25.9c8.5,6.3,19,8.8,29.4,7.2c8.8-1.4,16.8-5.6,22.9-12
						l-0.9-0.7c-6.7,7.1-15.9,11.4-25.7,12c-0.1,0-0.1,0-0.2,0l0,0c-19.3,1.1-36.5-12.4-40-31.4l-0.8-4.3l75.9-4.3V137
						c-1.4-22.3-18.4-38.3-39.5-37.1c-20.1,1.2-36.1,17.3-37.2,37.5l-0.2,3.5l-16,0.9l-0.5-3.5c-3.2-20.6-19.3-34.2-39.1-33.1
						c-20.1,1.2-36.2,17.3-37.3,37.5l-0.2,3.5l-45.3,2.6l-15,36.8l-33-54.5l-24.9,57.8L305,69.3l-28.3,1.6l0.4,6.3l1.1-0.1l-0.3-5.2
						l26.3-1.5l64.7,122L394,134l33,54.8L442.4,149.8z M488,146.1l0.4-4.5c1.6-19,17.1-34.2,36.1-35.4c18.8-1.1,34.3,11.8,37.8,31.2
						l0.8,4.3L488,146.1z M524.9,114c-13.7,0.8-25.1,10.7-28.1,23.8l56.8-3.3C549.5,121.5,538.2,113.3,524.9,114z M656.1,136.4
						l-75,4.3l0.4-4.5c1.6-19,17.1-34.2,36.1-35.4l0,0c18.8-1.1,34.3,11.8,37.8,31.2L656.1,136.4z M589.9,132.4l56.8-3.2
						c-4-13-15.3-21.3-28.6-20.5C604.3,109.4,592.9,119.3,589.9,132.4z"/>
				</g>
				<polygon class="st8" points="257.4,92.4 248.5,92.9 253.9,187.5 171.9,135.5 177,226 185.9,225.5 181.7,152 263.8,204 
					257.9,101.2 292.2,99.3 291.7,90.4 				"/>
				<g>
					<polygon class="st8" points="257.4,92.4 248.5,92.9 253.9,187.5 171.9,135.5 177,226 185.9,225.5 181.7,152 263.8,204 
						257.9,101.2 292.2,99.3 291.7,90.4 					"/>
					<path class="st8" d="M190,229.2l-16.6,1l-5.8-102l82.1,52l-5.2-91l51-2.9l1,16.6l-34.4,2l6.1,106.5l-82.1-52L190,229.2z
						 M180.7,221.9l1.1-0.1l-4.4-77.2l82.1,52l-5.7-99.1l34.4-2l-0.1-1.1l-35.5,2l5.6,98.3l-82.1-52L180.7,221.9z"/>
				</g>
			</g>
		</g>
		<g class="st1">
			<g id="Layer_2_11_">
				<g id="Layer_6_copy_12_9_">
					<path class="st8" d="M630.5,81.4C462.3,84.9,295.1,101.1,127,108c4.5,35.4,6.6,71.2,6.1,106.9c106-8.8,207.7-10.2,311.7-20.1
						c47.9-3.3,94.1-8.1,144.9-6.1c13.3-1.3,26.7,0.1,44.4-4.8c-161.3,8.7-322.4,17.9-483.4,27.6c1.9-8.1,1.4-16.6-1.4-24.5
						c160.9-11.7,322.3-14.3,483.2-29.9c-161.4,6.8-322.1,20.4-483.2,29.9c1.8-8.9,1.3-18.1-1.5-26.7l483.4-27.7
						c-161.6,2.6-322.1,20.6-483.3,27.6c1.8-8.9,1.2-18.1-1.6-26.7c161.4-4.5,321.9-20.4,483.3-27.6
						c-161.2,9.5-322.3,18.7-483.3,27.6c1.9-8.1,1.4-16.6-1.4-24.5C308.4,102.6,466.7,86.9,630.5,81.4L630.5,81.4z M149.8,211.5
						c-2.2,0-4.4,0.1-6.6,0.4c-2.6-7.9-3.1-16.3-1.4-24.4l6.6-0.4C151.1,195.8,149.3,202.6,149.8,211.5z M148.4,187.1
						c-2.2,0-4.4,0.1-6.6,0.4c-2.7-8.7-3.2-17.8-1.5-26.7c2.2,0,4.4-0.1,6.6-0.4C149.6,169.1,147.9,178.1,148.4,187.1z M146.9,160.5
						c-2.2,0-4.4,0.1-6.6,0.4c-2.7-8.7-3.2-17.8-1.5-26.7c2.2,0,4.4-0.1,6.6-0.4C148.1,142.5,146.4,151.5,146.9,160.5z M145.4,133.9
						c-2.2,0-4.4,0.1-6.6,0.4c-2.6-7.9-3.1-16.3-1.4-24.4l6.6-0.4C146.7,118.3,144.9,125.1,145.4,133.9z"/>
					<path class="st8" d="M152.7,146.8c2.3,2.1,2.5,4.3,4.7,4.2c2.3-0.4,4.1-2.3,4.2-4.7c-0.3-2.3-2.3-4.1-4.7-4.2
						C154.7,142.2,154.8,144.5,152.7,146.8z"/>
					<path class="st8" d="M154.3,173.4c2.3,2.1,2.5,4.3,4.7,4.2c2.4-0.1,4.3-2.2,4.2-4.7c-0.1-2.4-2.2-4.3-4.7-4.2
						C156.2,168.8,156.4,171,154.3,173.4z"/>
					<polygon class="st3" points="260.4,91.8 251.5,92.3 256.9,186.9 174.9,134.9 180,225.4 188.9,224.9 184.7,151.4 266.8,203.4 
						260.9,100.6 295.2,98.7 294.7,89.8 					"/>
					<g>
						<path class="st4" d="M527.9,113.4c-13.7,0.8-25.1,10.7-28.1,23.8l56.8-3.3C552.5,120.9,541.2,112.7,527.9,113.4z"/>
						<path class="st4" d="M621,108c-13.7,0.8-25.1,10.7-28.1,23.8l56.8-3.2C645.6,115.5,634.3,107.2,621,108z"/>
						<g>
							
								<rect x="284.7" y="113.1" transform="matrix(0.9984 -5.709852e-02 5.709852e-02 0.9984 -8.4766 16.5433)" class="st9" width="1.1" height="87"/>
							<path class="st9" d="M625.1,177.1c-0.1,0-0.1,0-0.2,0c-19.3,1.1-36.5-12.4-40-31.4l-0.8-4.3l75.9-4.3v-0.6
								c-1.4-22.3-18.4-38.3-39.5-37.1c-20.1,1.2-36.1,17.3-37.2,37.5l-0.2,3.5l-16,0.9l-0.5-3.5c-3.2-20.6-19.3-34.2-39.1-33.1
								c-20.1,1.2-36.2,17.3-37.3,37.5l-0.2,3.5l-45.3,2.6l-15,36.8l-33-54.5l-24.9,57.8L308,68.7l-28.3,1.6l0.4,6.3l1.1-0.1
								l-0.3-5.2l26.3-1.5l64.7,122l25.1-58.4l33,54.8l15.5-39l44.6-2.6l0.5,3.5c3.3,21.6,23.6,36.4,45.1,33
								c8.8-1.4,16.8-5.6,22.9-12.1l-0.8-0.7c-13.3,14.2-35.6,16.3-51.4,4.3c-7.7-5.8-12.8-14.3-14.5-23.8l-0.8-4.3l2.3-0.1l3.9-0.4
								l85.9-4.9l0.5,3.5c1.6,10.4,7.2,19.6,15.7,25.9c8.5,6.3,19,8.8,29.4,7.2c8.8-1.4,16.8-5.6,22.9-12l-0.9-0.7
								C644.1,172.2,634.9,176.5,625.1,177.1z M491,145.5l0.4-4.5c1.6-19,17.1-34.2,36.1-35.4c18.8-1.1,34.3,11.8,37.8,31.2l0.8,4.3
								L491,145.5z M584.4,135.6c1.6-19,17.1-34.2,36.1-35.4l0,0c18.8-1.1,34.3,11.8,37.8,31.2l0.8,4.3l-75,4.3L584.4,135.6z"/>
							<polygon class="st9" points="291.1,95 291.1,93.9 255.6,95.9 261.2,194.3 179.2,142.2 183.7,221.3 184.8,221.3 180.4,144.1 
								262.4,196.1 256.8,97 							"/>
						</g>
						<g>
							<path class="st10" d="M274,105.9l5.9,102.4l16.6-1L290.6,105L274,105.9z M287.2,200.1l-5-86.9l1.1-0.1l5,86.9L287.2,200.1z"
								/>
							<path class="st10" d="M647.2,157.4c-5.4,7.1-13.6,11.4-22.5,11.9h-0.1l0,0c-13.9,0.8-26.4-7.9-30.8-20.8l74.5-4.3l-0.5-8.3
								c-1.7-26.8-22.2-45.8-47.7-44.4c-22.9,1.4-41.3,18.9-44.2,41.3l-2.3,0.1c-5.1-22.4-24.1-37.4-46.5-36.2
								c-22.9,1.4-41.4,18.9-44.2,41.4l-43.4,2.5l-11.1,27l-32.8-54.2L371,170.3L312.5,60.7l-41,2.3l1.2,21.9l16.6-1l-0.3-5.2
								l13.6-0.8l69.9,131.9l25.5-59.4l33.3,55.3l19.4-49l32.8-1.9c5.5,23.9,28.7,39.9,53.3,36c12.1-1.9,22.9-8.3,30.3-18l2.3-3.1
								l-13.1-10.2l-2.4,3.1c-10.3,13.5-29.6,16-43,5.8c-5-3.8-8.6-8.9-10.5-14.8l76.1-4.4c2.5,11.1,8.9,20.7,18.1,27.5
								c10.2,7.5,22.7,10.5,35.2,8.6c12.1-1.9,22.9-8.2,30.3-17.9l2.4-3.1l-13.1-10.2L647.2,157.4z M651.7,165.7
								c-6,6.4-14,10.7-22.9,12c-10.5,1.6-20.9-1-29.4-7.2c-8.5-6.3-14.1-15.5-15.7-25.9l-0.5-3.5l-85.9,4.9l-3.9,0.4l-2.3,0.1
								l0.8,4.3c1.7,9.5,6.9,17.9,14.5,23.8c15.8,12.1,38.1,10,51.4-4.3l0.8,0.7c-6,6.5-14,10.7-22.9,12.1
								c-21.5,3.3-41.8-11.5-45.1-33l-0.5-3.5l-44.6,2.6l-15.5,39l-33-54.8l-25.1,58.4l-64.7-122l-26.3,1.5l0.3,5.2l-1.1,0.1
								l-0.4-6.3l28.3-1.6l63.7,119.5l24.9-57.8l33,54.5l15-36.8l45.3-2.6l0.2-3.5c1.1-20.2,17.1-36.3,37.3-37.5
								c19.8-1.1,35.8,12.5,39.1,33.1l0.5,3.5l16-0.9l0.2-3.5c1.1-20.1,17.1-36.2,37.2-37.5c21.1-1.2,38.1,14.8,39.5,37.1v0.6
								l-75.9,4.3l0.8,4.3c3.5,19,20.7,32.5,40,31.4c0.1,0,0.1,0,0.2,0c9.8-0.6,19-4.9,25.7-12L651.7,165.7z"/>
							<path class="st10" d="M658.3,131.5c-3.4-19.5-19-32.3-37.8-31.2l0,0c-19,1.2-34.6,16.4-36.1,35.4l-0.4,4.5l75-4.3
								L658.3,131.5z M592.9,131.8c3.1-13,14.5-23,28.1-23.8c13.3-0.8,24.6,7.5,28.6,20.5L592.9,131.8z"/>
							<path class="st10" d="M527.5,105.7c-19,1.2-34.6,16.4-36.1,35.4l-0.4,4.5l75-4.3l-0.8-4.3
								C561.8,117.4,546.3,104.6,527.5,105.7z M499.8,137.2c3.1-13,14.5-22.9,28.1-23.8c13.3-0.8,24.6,7.5,28.6,20.5L499.8,137.2z"
								/>
							<path class="st10" d="M247.4,88.6l5.2,91l-82.1-52l5.8,102l16.6-1l-4-69.9l82.1,52l-6-106.4l34.4-2l-1-16.6L247.4,88.6z
								 M180.4,144.1l4.4,77.2l-1.1,0.1l-4.5-79.1l82.1,52L255.7,96l35.5-2l0.1,1.1l-34.4,2l5.7,99.1L180.4,144.1z"/>
						</g>
					</g>
					<path class="st4" d="M620.6,101.9c-17.3,1.1-31.1,14.7-32.5,31.9l66.2-3.8C651.3,112.7,637.5,100.9,620.6,101.9z"/>
					<path class="st4" d="M527.6,107.2c-17.3,1.1-31.1,14.7-32.5,31.9l66.2-3.8C558.2,118.1,544.4,106.3,527.6,107.2z"/>
				</g>
			</g>
		</g>
	</g>
</g>
</svg>
